<svg xmlns="http://www.w3.org/2000/svg" xmlns:xlink="http://www.w3.org/1999/xlink" width="1848" height="919" version="1.1">
<style type="text/css">
.l0{
 fill: #ffffff;
  stroke: #ffffff;
  stroke-linecap:round;
  stroke-linejoin:round;
  stroke-width: 1.67853;
}
.l1{
 fill: #0044ee;
  stroke: #0044ee;
  stroke-linecap:round;
  stroke-linejoin:round;
  stroke-width: 1.67853;
}
.l2{
  fill: none;
  stroke: #aaaaaa;
  stroke-linecap:round;
  stroke-linejoin:round;
  stroke-width: 1.67853;
}
.l3{
 fill: #222222; fill-opacity: 0.5;
  stroke: #222222;
  stroke-linecap:round;
  stroke-linejoin:round;
  stroke-width: 1.67853;
}
.l4{
 fill: #229900;
  stroke: #229900;
  stroke-linecap:round;
  stroke-linejoin:round;
  stroke-width: 1.67853;
}
.l5{
 fill: #bb2200;
  stroke: #bb2200;
  stroke-linecap:round;
  stroke-linejoin:round;
  stroke-width: 1.67853;
}
.l6{
 fill: #00ccee; fill-opacity: 0.5;
  stroke: #00ccee;
  stroke-linecap:round;
  stroke-linejoin:round;
  stroke-width: 1.67853;
}
.l7{
 fill: #ff0000; fill-opacity: 0.5;
  stroke: #ff0000;
  stroke-linecap:round;
  stroke-linejoin:round;
  stroke-width: 1.67853;
}
.l8{
 fill: #888800; fill-opacity: 0.5;
  stroke: #888800;
  stroke-linecap:round;
  stroke-linejoin:round;
  stroke-width: 1.67853;
}
.l9{
 fill: #00aaaa; fill-opacity: 0.5;
  stroke: #00aaaa;
  stroke-linecap:round;
  stroke-linejoin:round;
  stroke-width: 1.67853;
}
.l10{
 fill: #880088;
  stroke: #880088;
  stroke-linecap:round;
  stroke-linejoin:round;
  stroke-width: 1.67853;
}
.l11{
 fill: #00ff00; fill-opacity: 0.5;
  stroke: #00ff00;
  stroke-linecap:round;
  stroke-linejoin:round;
  stroke-width: 1.67853;
}
.l12{
 fill: #0000cc; fill-opacity: 0.5;
  stroke: #0000cc;
  stroke-linecap:round;
  stroke-linejoin:round;
  stroke-width: 1.67853;
}
.l13{
 fill: #666600; fill-opacity: 0.5;
  stroke: #666600;
  stroke-linecap:round;
  stroke-linejoin:round;
  stroke-width: 1.67853;
}
.l14{
  fill: none;
  stroke: #557755;
  stroke-linecap:round;
  stroke-linejoin:round;
  stroke-width: 1.67853;
}
.l15{
 fill: #aa2222; fill-opacity: 0.5;
  stroke: #aa2222;
  stroke-linecap:round;
  stroke-linejoin:round;
  stroke-width: 1.67853;
}
.l16{
 fill: #7ccc40; fill-opacity: 0.5;
  stroke: #7ccc40;
  stroke-linecap:round;
  stroke-linejoin:round;
  stroke-width: 1.67853;
}
.l17{
  fill: none;
  stroke: #00ffcc;
  stroke-linecap:round;
  stroke-linejoin:round;
  stroke-width: 1.67853;
}
.l18{
 fill: #ce0097; fill-opacity: 0.5;
  stroke: #ce0097;
  stroke-linecap:round;
  stroke-linejoin:round;
  stroke-width: 1.67853;
}
.l19{
  fill: none;
  stroke: #d2d46b;
  stroke-linecap:round;
  stroke-linejoin:round;
  stroke-width: 1.67853;
}
.l20{
  fill: none;
  stroke: #ef6158;
  stroke-linecap:round;
  stroke-linejoin:round;
  stroke-width: 1.67853;
}
.l21{
  fill: none;
  stroke: #fdb200;
  stroke-linecap:round;
  stroke-linejoin:round;
  stroke-width: 1.67853;
}
text {font-family: Sans-Serif;}
</style>
<rect class="l0" x="0" y="0" width="1848" height="919"/>
<text fill="#0044ee"  xml:space="preserve" font-size="21.8208" transform="translate(743.148, 33.617)" >VDD</text>
<text fill="#0044ee"  xml:space="preserve" font-size="21.8208" transform="translate(749.148, 872.88)" >VSS</text>
<text fill="#bb2200"  xml:space="preserve" font-size="21.8208" transform="translate(522.729, 391.081)" >IBIAS100U</text>
<text fill="#0044ee"  xml:space="preserve" font-size="21.8208" transform="translate(1247.03, 406.623)" >IIN5U</text>
<text fill="#0044ee"  xml:space="preserve" font-size="21.8208" transform="translate(1223.03, 484.332)" >IOUT5U</text>
<text fill="#0044ee"  xml:space="preserve" font-size="21.8208" transform="translate(1197.32, 795.17)" >VB</text>
<text fill="#0044ee"  xml:space="preserve" font-size="26.6699" transform="translate(205.199, 299.091)" >VDD</text>
<text fill="#0044ee"  xml:space="preserve" font-size="26.6699" transform="translate(205.199, 407.884)" >IIN5U</text>
<text fill="#0044ee"  xml:space="preserve" font-size="26.6699" transform="translate(205.199, 376.801)" >IOUT5U</text>
<text fill="#0044ee"  xml:space="preserve" font-size="26.6699" transform="translate(205.199, 330.175)" >VSS</text>
<text fill="#0044ee"  xml:space="preserve" font-size="21.8208" transform="translate(90.3886, 282.287)" >VDD</text>
<text fill="#0044ee"  xml:space="preserve" font-size="21.8208" transform="translate(96.3886, 313.371)" >VSS</text>
<text fill="#0044ee"  xml:space="preserve" font-size="21.8208" transform="translate(57.3886, 359.997)" >IOUT5U</text>
<text fill="#0044ee"  xml:space="preserve" font-size="21.8208" transform="translate(81.3886, 391.081)" >IIN5U</text>
<text fill="#bb2200"  xml:space="preserve" font-size="26.6699" transform="translate(205.199, 438.968)" >IBIAS100U</text>
<text fill="#bb2200"  xml:space="preserve" font-size="21.8208" transform="translate(25.3886, 422.165)" >IBIAS100U</text>
<text fill="#0044ee"  xml:space="preserve" font-size="21.8208" transform="translate(799.919, 795.17)" >VB</text>
<text fill="#bb2200"  xml:space="preserve" font-size="21.8208" transform="translate(1097.78, 562.042)" >IBIAS100U</text>
<text fill="#222222"  xml:space="preserve" font-size="16.1636" transform="translate(959.224, 117.619)" >M7</text>
<text fill="#ff0000"  xml:space="preserve" font-size="12.1227" transform="translate(923.026, 187.774)" >D</text>
<text fill="#ff0000"  xml:space="preserve" font-size="12.1227" transform="translate(924.026, 119.473)" >S</text>
<text fill="#ff0000"  xml:space="preserve" font-size="12.1227" transform="translate(927.911, 145.034)" >B</text>
<text fill="#ff0000"  xml:space="preserve" font-size="12.1227" transform="translate(982.537, 145.034)" >G</text>
<text fill="#222222"  xml:space="preserve" font-size="16.1636" transform="translate(838.369, 132.106)" >pmos_3p3</text>
<text fill="#666600"  xml:space="preserve" font-size="16.1636" transform="translate(808.426, 185.615)" >1 x 15u / 0.6u</text>
<text fill="#666600"  xml:space="preserve" font-size="16.1636" transform="translate(878.426, 166.187)" >nf=1</text>
<text fill="#222222"  xml:space="preserve" font-size="16.1636" transform="translate(663.928, 770.379)" >M8</text>
<text fill="#ff0000"  xml:space="preserve" font-size="12.1227" transform="translate(628.729, 840.534)" >S</text>
<text fill="#ff0000"  xml:space="preserve" font-size="12.1227" transform="translate(627.729, 772.232)" >D</text>
<text fill="#ff0000"  xml:space="preserve" font-size="12.1227" transform="translate(632.615, 797.794)" >B</text>
<text fill="#ff0000"  xml:space="preserve" font-size="12.1227" transform="translate(687.241, 797.794)" >G</text>
<text fill="#222222"  xml:space="preserve" font-size="16.1636" transform="translate(543.073, 784.866)" >nmos_3p3</text>
<text fill="#666600"  xml:space="preserve" font-size="16.1636" transform="translate(503.13, 838.375)" >1 x 100u / 0.6u</text>
<text fill="#666600"  xml:space="preserve" font-size="16.1636" transform="translate(573.13, 818.947)" >nf=20</text>
<text fill="#222222"  xml:space="preserve" font-size="16.1636" transform="translate(888.598, 770.379)" >M1</text>
<text fill="#ff0000"  xml:space="preserve" font-size="12.1227" transform="translate(939.797, 840.534)" >S</text>
<text fill="#ff0000"  xml:space="preserve" font-size="12.1227" transform="translate(939.797, 772.232)" >D</text>
<text fill="#ff0000"  xml:space="preserve" font-size="12.1227" transform="translate(935.911, 797.794)" >B</text>
<text fill="#ff0000"  xml:space="preserve" font-size="12.1227" transform="translate(880.285, 797.794)" >G</text>
<text fill="#222222"  xml:space="preserve" font-size="16.1636" transform="translate(951.453, 784.866)" >nmos_3p3</text>
<text fill="#666600"  xml:space="preserve" font-size="16.1636" transform="translate(953.396, 838.375)" >1 x 5u / 0.6u</text>
<text fill="#666600"  xml:space="preserve" font-size="16.1636" transform="translate(953.396, 818.947)" >nf=1</text>
<text fill="#222222"  xml:space="preserve" font-size="16.1636" transform="translate(1261.6, 117.619)" >M2</text>
<text fill="#ff0000"  xml:space="preserve" font-size="12.1227" transform="translate(1312.8, 187.774)" >D</text>
<text fill="#ff0000"  xml:space="preserve" font-size="12.1227" transform="translate(1312.8, 119.473)" >S</text>
<text fill="#ff0000"  xml:space="preserve" font-size="12.1227" transform="translate(1308.92, 145.034)" >B</text>
<text fill="#ff0000"  xml:space="preserve" font-size="12.1227" transform="translate(1253.29, 145.034)" >G</text>
<text fill="#222222"  xml:space="preserve" font-size="16.1636" transform="translate(1324.46, 132.106)" >pmos_3p3</text>
<text fill="#666600"  xml:space="preserve" font-size="16.1636" transform="translate(1326.4, 185.615)" >1 x 15u / 0.6u</text>
<text fill="#666600"  xml:space="preserve" font-size="16.1636" transform="translate(1326.4, 166.187)" >nf=1</text>
<text fill="#222222"  xml:space="preserve" font-size="16.1636" transform="translate(1261.6, 770.379)" >M3</text>
<text fill="#ff0000"  xml:space="preserve" font-size="12.1227" transform="translate(1312.8, 840.534)" >S</text>
<text fill="#ff0000"  xml:space="preserve" font-size="12.1227" transform="translate(1312.8, 772.232)" >D</text>
<text fill="#ff0000"  xml:space="preserve" font-size="12.1227" transform="translate(1308.92, 797.794)" >B</text>
<text fill="#ff0000"  xml:space="preserve" font-size="12.1227" transform="translate(1253.29, 797.794)" >G</text>
<text fill="#222222"  xml:space="preserve" font-size="16.1636" transform="translate(1324.46, 784.866)" >nmos_3p3</text>
<text fill="#666600"  xml:space="preserve" font-size="16.1636" transform="translate(1326.4, 838.375)" >1 x 5u / 0.6u</text>
<text fill="#666600"  xml:space="preserve" font-size="16.1636" transform="translate(1326.4, 818.947)" >nf=1</text>
<text fill="#222222"  xml:space="preserve" font-size="16.1636" transform="translate(663.928, 521.708)" >M4</text>
<text fill="#ff0000"  xml:space="preserve" font-size="12.1227" transform="translate(628.729, 591.863)" >S</text>
<text fill="#ff0000"  xml:space="preserve" font-size="12.1227" transform="translate(627.729, 523.562)" >D</text>
<text fill="#ff0000"  xml:space="preserve" font-size="12.1227" transform="translate(632.615, 549.123)" >B</text>
<text fill="#ff0000"  xml:space="preserve" font-size="12.1227" transform="translate(687.241, 549.123)" >G</text>
<text fill="#222222"  xml:space="preserve" font-size="16.1636" transform="translate(543.073, 536.195)" >nmos_3p3</text>
<text fill="#666600"  xml:space="preserve" font-size="16.1636" transform="translate(503.13, 589.704)" >1 x 125u / 0.6u</text>
<text fill="#666600"  xml:space="preserve" font-size="16.1636" transform="translate(573.13, 570.277)" >nf=25</text>
<text fill="#222222"  xml:space="preserve" font-size="16.1636" transform="translate(888.598, 521.708)" >M5</text>
<text fill="#ff0000"  xml:space="preserve" font-size="12.1227" transform="translate(939.797, 591.863)" >S</text>
<text fill="#ff0000"  xml:space="preserve" font-size="12.1227" transform="translate(939.797, 523.562)" >D</text>
<text fill="#ff0000"  xml:space="preserve" font-size="12.1227" transform="translate(935.911, 549.123)" >B</text>
<text fill="#ff0000"  xml:space="preserve" font-size="12.1227" transform="translate(880.285, 549.123)" >G</text>
<text fill="#222222"  xml:space="preserve" font-size="16.1636" transform="translate(951.453, 536.195)" >nmos_3p3</text>
<text fill="#666600"  xml:space="preserve" font-size="16.1636" transform="translate(953.396, 589.704)" >1 x 10u / 0.6u</text>
<text fill="#666600"  xml:space="preserve" font-size="16.1636" transform="translate(953.396, 570.277)" >nf=2</text>
<text fill="#222222"  xml:space="preserve" font-size="16.1636" transform="translate(959.224, 273.038)" >M6</text>
<text fill="#ff0000"  xml:space="preserve" font-size="12.1227" transform="translate(923.026, 343.193)" >D</text>
<text fill="#ff0000"  xml:space="preserve" font-size="12.1227" transform="translate(924.026, 274.892)" >S</text>
<text fill="#ff0000"  xml:space="preserve" font-size="12.1227" transform="translate(927.911, 300.453)" >B</text>
<text fill="#ff0000"  xml:space="preserve" font-size="12.1227" transform="translate(982.537, 300.453)" >G</text>
<text fill="#222222"  xml:space="preserve" font-size="16.1636" transform="translate(838.369, 287.525)" >pmos_3p3</text>
<text fill="#666600"  xml:space="preserve" font-size="16.1636" transform="translate(808.426, 341.034)" >1 x 30u / 0.6u</text>
<text fill="#666600"  xml:space="preserve" font-size="16.1636" transform="translate(878.426, 321.606)" >nf=2</text>
<text fill="#222222"  xml:space="preserve" font-size="16.1636" transform="translate(1261.6, 273.038)" >M9</text>
<text fill="#ff0000"  xml:space="preserve" font-size="12.1227" transform="translate(1312.8, 343.193)" >D</text>
<text fill="#ff0000"  xml:space="preserve" font-size="12.1227" transform="translate(1312.8, 274.892)" >S</text>
<text fill="#ff0000"  xml:space="preserve" font-size="12.1227" transform="translate(1308.92, 300.453)" >B</text>
<text fill="#ff0000"  xml:space="preserve" font-size="12.1227" transform="translate(1253.29, 300.453)" >G</text>
<text fill="#222222"  xml:space="preserve" font-size="16.1636" transform="translate(1324.46, 287.525)" >pmos_3p3</text>
<text fill="#666600"  xml:space="preserve" font-size="16.1636" transform="translate(1326.4, 341.034)" >1 x 30u / 0.6u</text>
<text fill="#666600"  xml:space="preserve" font-size="16.1636" transform="translate(1326.4, 321.606)" >nf=2</text>
<text fill="#222222"  xml:space="preserve" font-size="16.1636" transform="translate(1251.6, 537.25)" >M10</text>
<text fill="#ff0000"  xml:space="preserve" font-size="12.1227" transform="translate(1312.8, 607.405)" >S</text>
<text fill="#ff0000"  xml:space="preserve" font-size="12.1227" transform="translate(1312.8, 539.104)" >D</text>
<text fill="#ff0000"  xml:space="preserve" font-size="12.1227" transform="translate(1308.92, 564.665)" >B</text>
<text fill="#ff0000"  xml:space="preserve" font-size="12.1227" transform="translate(1253.29, 564.665)" >G</text>
<text fill="#222222"  xml:space="preserve" font-size="16.1636" transform="translate(1324.46, 551.737)" >nmos_3p3</text>
<text fill="#666600"  xml:space="preserve" font-size="16.1636" transform="translate(1326.4, 605.246)" >1 x 10u / 0.6u</text>
<text fill="#666600"  xml:space="preserve" font-size="16.1636" transform="translate(1326.4, 585.819)" >nf=2</text>
<path class="l4" d="M955.338 114.599L955.338 184.537"/>
<path class="l4" d="M935.911 102.943L935.911 122.37"/>
<path class="l4" d="M935.911 176.767L935.911 196.194"/>
<path class="l4" d="M963.109 126.255L963.109 172.881"/>
<path class="l4" d="M935.911 176.767L955.338 176.767"/>
<path class="l4" d="M935.911 122.37L947.567 122.37"/>
<path class="l4" d="M978.651 149.568L998.079 149.568"/>
<path class="l4" d="M947.567 118.484L955.338 122.37L947.567 126.255L947.567 118.484"/>
<circle class="l4" cx="970.88" cy="149.568" r="7.77095" style="fill:none;"/>
<path class="l4" d="M660.042 767.359L660.042 837.297"/>
<path class="l4" d="M667.813 802.328L702.783 802.328"/>
<path class="l4" d="M640.615 755.702L640.615 775.13"/>
<path class="l4" d="M640.615 829.526L640.615 848.954"/>
<path class="l4" d="M667.813 779.015L667.813 825.641"/>
<path class="l4" d="M640.615 775.13L660.042 775.13"/>
<path class="l4" d="M648.386 829.526L660.042 829.526"/>
<path class="l4" d="M648.386 825.641L640.615 829.526L648.386 833.412L648.386 825.641"/>
<path class="l4" d="M916.484 767.359L916.484 837.297"/>
<path class="l4" d="M873.743 802.328L908.713 802.328"/>
<path class="l4" d="M935.911 755.702L935.911 775.13"/>
<path class="l4" d="M935.911 829.526L935.911 848.954"/>
<path class="l4" d="M908.713 779.015L908.713 825.641"/>
<path class="l4" d="M916.484 775.13L935.911 775.13"/>
<path class="l4" d="M916.484 829.526L928.14 829.526"/>
<path class="l4" d="M928.14 825.641L935.911 829.526L928.14 833.412L928.14 825.641"/>
<path class="l4" d="M1289.49 114.599L1289.49 184.537"/>
<path class="l4" d="M1308.92 102.943L1308.92 122.37"/>
<path class="l4" d="M1308.92 176.767L1308.92 196.194"/>
<path class="l4" d="M1281.72 126.255L1281.72 172.881"/>
<path class="l4" d="M1289.49 176.767L1308.92 176.767"/>
<path class="l4" d="M1297.26 122.37L1308.92 122.37"/>
<path class="l4" d="M1246.75 149.568L1266.18 149.568"/>
<path class="l4" d="M1297.26 118.484L1289.49 122.37L1297.26 126.255L1297.26 118.484"/>
<circle class="l4" cx="1273.95" cy="149.568" r="7.77095" style="fill:none;"/>
<path class="l4" d="M1289.49 767.359L1289.49 837.297"/>
<path class="l4" d="M1246.75 802.328L1281.72 802.328"/>
<path class="l4" d="M1308.92 755.702L1308.92 775.13"/>
<path class="l4" d="M1308.92 829.526L1308.92 848.954"/>
<path class="l4" d="M1281.72 779.015L1281.72 825.641"/>
<path class="l4" d="M1289.49 775.13L1308.92 775.13"/>
<path class="l4" d="M1289.49 829.526L1301.15 829.526"/>
<path class="l4" d="M1301.15 825.641L1308.92 829.526L1301.15 833.412L1301.15 825.641"/>
<path class="l4" d="M660.042 518.688L660.042 588.627"/>
<path class="l4" d="M667.813 553.658L702.783 553.658"/>
<path class="l4" d="M640.615 507.032L640.615 526.459"/>
<path class="l4" d="M640.615 580.856L640.615 600.283"/>
<path class="l4" d="M667.813 530.345L667.813 576.97"/>
<path class="l4" d="M640.615 526.459L660.042 526.459"/>
<path class="l4" d="M648.386 580.856L660.042 580.856"/>
<path class="l4" d="M648.386 576.97L640.615 580.856L648.386 584.741L648.386 576.97"/>
<path class="l4" d="M916.484 518.688L916.484 588.627"/>
<path class="l4" d="M873.743 553.658L908.713 553.658"/>
<path class="l4" d="M935.911 507.032L935.911 526.459"/>
<path class="l4" d="M935.911 580.856L935.911 600.283"/>
<path class="l4" d="M908.713 530.345L908.713 576.97"/>
<path class="l4" d="M916.484 526.459L935.911 526.459"/>
<path class="l4" d="M916.484 580.856L928.14 580.856"/>
<path class="l4" d="M928.14 576.97L935.911 580.856L928.14 584.741L928.14 576.97"/>
<path class="l4" d="M955.338 270.018L955.338 339.957"/>
<path class="l4" d="M935.911 258.362L935.911 277.789"/>
<path class="l4" d="M935.911 332.186L935.911 351.613"/>
<path class="l4" d="M963.109 281.674L963.109 328.3"/>
<path class="l4" d="M935.911 332.186L955.338 332.186"/>
<path class="l4" d="M935.911 277.789L947.567 277.789"/>
<path class="l4" d="M978.651 304.987L998.079 304.987"/>
<path class="l4" d="M947.567 273.903L955.338 277.789L947.567 281.674L947.567 273.903"/>
<circle class="l4" cx="970.88" cy="304.987" r="7.77095" style="fill:none;"/>
<path class="l4" d="M1289.49 270.018L1289.49 339.957"/>
<path class="l4" d="M1308.92 258.362L1308.92 277.789"/>
<path class="l4" d="M1308.92 332.186L1308.92 351.613"/>
<path class="l4" d="M1281.72 281.674L1281.72 328.3"/>
<path class="l4" d="M1289.49 332.186L1308.92 332.186"/>
<path class="l4" d="M1297.26 277.789L1308.92 277.789"/>
<path class="l4" d="M1246.75 304.987L1266.18 304.987"/>
<path class="l4" d="M1297.26 273.903L1289.49 277.789L1297.26 281.674L1297.26 273.903"/>
<circle class="l4" cx="1273.95" cy="304.987" r="7.77095" style="fill:none;"/>
<path class="l4" d="M1289.49 534.23L1289.49 604.169"/>
<path class="l4" d="M1246.75 569.2L1281.72 569.2"/>
<path class="l4" d="M1308.92 522.574L1308.92 542.001"/>
<path class="l4" d="M1308.92 596.398L1308.92 615.825"/>
<path class="l4" d="M1281.72 545.887L1281.72 592.512"/>
<path class="l4" d="M1289.49 542.001L1308.92 542.001"/>
<path class="l4" d="M1289.49 596.398L1301.15 596.398"/>
<path class="l4" d="M1301.15 592.512L1308.92 596.398L1301.15 600.283L1301.15 592.512"/>
<path class="l5" d="M943.682 145.683L935.911 149.568L943.682 153.454L943.682 145.683"/>
<path class="l5" d="M932.026 192.308L939.797 192.308L939.797 200.079L932.026 200.079L932.026 192.308z"/>
<path class="l5" d="M994.193 145.683L1001.96 145.683L1001.96 153.454L994.193 153.454L994.193 145.683z"/>
<path class="l5" d="M932.026 99.057L939.797 99.057L939.797 106.828L932.026 106.828L932.026 99.057z"/>
<path class="l5" d="M935.79 149.447L936.032 149.447L936.032 149.69L935.79 149.69L935.79 149.447z"/>
<path class="l5" d="M640.615 798.443L648.386 802.328L640.615 806.214L640.615 798.443"/>
<path class="l5" d="M636.729 751.817L644.5 751.817L644.5 759.588L636.729 759.588L636.729 751.817z"/>
<path class="l5" d="M698.897 798.443L706.668 798.443L706.668 806.214L698.897 806.214L698.897 798.443z"/>
<path class="l5" d="M636.729 845.068L644.5 845.068L644.5 852.839L636.729 852.839L636.729 845.068z"/>
<path class="l5" d="M640.494 802.207L640.736 802.207L640.736 802.449L640.494 802.449L640.494 802.207z"/>
<path class="l5" d="M935.911 798.443L928.14 802.328L935.911 806.214L935.911 798.443"/>
<path class="l5" d="M932.026 751.817L939.797 751.817L939.797 759.588L932.026 759.588L932.026 751.817z"/>
<path class="l5" d="M869.858 798.443L877.629 798.443L877.629 806.214L869.858 806.214L869.858 798.443z"/>
<path class="l5" d="M932.026 845.068L939.797 845.068L939.797 852.839L932.026 852.839L932.026 845.068z"/>
<path class="l5" d="M935.79 802.207L936.032 802.207L936.032 802.449L935.79 802.449L935.79 802.207z"/>
<path class="l5" d="M1301.15 145.683L1308.92 149.568L1301.15 153.454L1301.15 145.683"/>
<path class="l5" d="M1305.03 192.308L1312.8 192.308L1312.8 200.079L1305.03 200.079L1305.03 192.308z"/>
<path class="l5" d="M1242.86 145.683L1250.63 145.683L1250.63 153.454L1242.86 153.454L1242.86 145.683z"/>
<path class="l5" d="M1305.03 99.057L1312.8 99.057L1312.8 106.828L1305.03 106.828L1305.03 99.057z"/>
<path class="l5" d="M1308.8 149.447L1309.04 149.447L1309.04 149.69L1308.8 149.69L1308.8 149.447z"/>
<path class="l5" d="M794.091 38.8322L797.977 38.8322L797.977 42.7176L794.091 42.7176L794.091 38.8322z"/>
<path class="l5" d="M794.091 878.095L797.977 878.095L797.977 881.98L794.091 881.98L794.091 878.095z"/>
<path class="l5" d="M638.672 396.296L642.558 396.296L642.558 400.181L638.672 400.181L638.672 396.296z"/>
<path class="l5" d="M1306.97 411.838L1310.86 411.838L1310.86 415.723L1306.97 415.723L1306.97 411.838z"/>
<path class="l5" d="M1306.97 489.547L1310.86 489.547L1310.86 493.433L1306.97 493.433L1306.97 489.547z"/>
<path class="l5" d="M1229.26 800.385L1233.15 800.385L1233.15 804.271L1229.26 804.271L1229.26 800.385z"/>
<path class="l5" d="M1308.92 798.443L1301.15 802.328L1308.92 806.214L1308.92 798.443"/>
<path class="l5" d="M1305.03 751.817L1312.8 751.817L1312.8 759.588L1305.03 759.588L1305.03 751.817z"/>
<path class="l5" d="M1242.86 798.443L1250.63 798.443L1250.63 806.214L1242.86 806.214L1242.86 798.443z"/>
<path class="l5" d="M1305.03 845.068L1312.8 845.068L1312.8 852.839L1305.03 852.839L1305.03 845.068z"/>
<path class="l5" d="M1308.8 802.207L1309.04 802.207L1309.04 802.449L1308.8 802.449L1308.8 802.207z"/>
<path class="l5" d="M174.358 289.445L179.215 289.445"/>
<path class="l5" d="M195.728 297.216L201.556 289.445L195.728 281.674L185.043 281.674L179.215 289.445L185.043 297.216L195.728 297.216"/>
<path class="l5" d="M172.415 287.503L176.301 287.503L176.301 291.388L172.415 291.388L172.415 287.503z"/>
<path class="l5" d="M174.358 398.239L179.215 398.239"/>
<path class="l5" d="M195.728 406.01L201.556 398.239L195.728 390.468L185.043 390.468L179.215 398.239L185.043 406.01L195.728 406.01"/>
<path class="l5" d="M172.415 396.296L176.301 396.296L176.301 400.181L172.415 400.181L172.415 396.296z"/>
<path class="l5" d="M174.358 367.155L179.215 367.155"/>
<path class="l5" d="M195.728 374.926L201.556 367.155L195.728 359.384L185.043 359.384L179.215 367.155L185.043 374.926L195.728 374.926"/>
<path class="l5" d="M172.415 365.212L176.301 365.212L176.301 369.098L172.415 369.098L172.415 365.212z"/>
<path class="l5" d="M174.358 320.529L179.215 320.529"/>
<path class="l5" d="M195.728 328.3L201.556 320.529L195.728 312.758L185.043 312.758L179.215 320.529L185.043 328.3L195.728 328.3"/>
<path class="l5" d="M172.415 318.586L176.301 318.586L176.301 322.472L172.415 322.472L172.415 318.586z"/>
<path class="l5" d="M141.331 287.503L145.217 287.503L145.217 291.388L141.331 291.388L141.331 287.503z"/>
<path class="l5" d="M141.331 318.586L145.217 318.586L145.217 322.472L141.331 322.472L141.331 318.586z"/>
<path class="l5" d="M141.331 365.212L145.217 365.212L145.217 369.098L141.331 369.098L141.331 365.212z"/>
<path class="l5" d="M141.331 396.296L145.217 396.296L145.217 400.181L141.331 400.181L141.331 396.296z"/>
<path class="l5" d="M174.358 429.322L179.215 429.322"/>
<path class="l5" d="M195.728 437.093L201.556 429.322L195.728 421.551L185.043 421.551L179.215 429.322L185.043 437.093L195.728 437.093"/>
<path class="l5" d="M172.415 427.38L176.301 427.38L176.301 431.265L172.415 431.265L172.415 427.38z"/>
<path class="l5" d="M141.331 427.38L145.217 427.38L145.217 431.265L141.331 431.265L141.331 427.38z"/>
<path class="l5" d="M640.615 549.772L648.386 553.658L640.615 557.543L640.615 549.772"/>
<path class="l5" d="M636.729 503.146L644.5 503.146L644.5 510.917L636.729 510.917L636.729 503.146z"/>
<path class="l5" d="M698.897 549.772L706.668 549.772L706.668 557.543L698.897 557.543L698.897 549.772z"/>
<path class="l5" d="M636.729 596.398L644.5 596.398L644.5 604.169L636.729 604.169L636.729 596.398z"/>
<path class="l5" d="M640.494 553.536L640.736 553.536L640.736 553.779L640.494 553.779L640.494 553.536z"/>
<path class="l5" d="M794.091 800.385L797.977 800.385L797.977 804.271L794.091 804.271L794.091 800.385z"/>
<path class="l5" d="M935.911 549.772L928.14 553.658L935.911 557.543L935.911 549.772"/>
<path class="l5" d="M932.026 503.146L939.797 503.146L939.797 510.917L932.026 510.917L932.026 503.146z"/>
<path class="l5" d="M869.858 549.772L877.629 549.772L877.629 557.543L869.858 557.543L869.858 549.772z"/>
<path class="l5" d="M932.026 596.398L939.797 596.398L939.797 604.169L932.026 604.169L932.026 596.398z"/>
<path class="l5" d="M935.79 553.536L936.032 553.536L936.032 553.779L935.79 553.779L935.79 553.536z"/>
<path class="l5" d="M943.682 301.102L935.911 304.987L943.682 308.873L943.682 301.102"/>
<path class="l5" d="M932.026 347.727L939.797 347.727L939.797 355.498L932.026 355.498L932.026 347.727z"/>
<path class="l5" d="M994.193 301.102L1001.96 301.102L1001.96 308.873L994.193 308.873L994.193 301.102z"/>
<path class="l5" d="M932.026 254.476L939.797 254.476L939.797 262.247L932.026 262.247L932.026 254.476z"/>
<path class="l5" d="M935.79 304.866L936.032 304.866L936.032 305.109L935.79 305.109L935.79 304.866z"/>
<path class="l5" d="M1213.72 567.257L1217.61 567.257L1217.61 571.142L1213.72 571.142L1213.72 567.257z"/>
<path class="l5" d="M1301.15 301.102L1308.92 304.987L1301.15 308.873L1301.15 301.102"/>
<path class="l5" d="M1305.03 347.727L1312.8 347.727L1312.8 355.498L1305.03 355.498L1305.03 347.727z"/>
<path class="l5" d="M1242.86 301.102L1250.63 301.102L1250.63 308.873L1242.86 308.873L1242.86 301.102z"/>
<path class="l5" d="M1305.03 254.476L1312.8 254.476L1312.8 262.247L1305.03 262.247L1305.03 254.476z"/>
<path class="l5" d="M1308.8 304.866L1309.04 304.866L1309.04 305.109L1308.8 305.109L1308.8 304.866z"/>
<path class="l5" d="M1308.92 565.314L1301.15 569.2L1308.92 573.085L1308.92 565.314"/>
<path class="l5" d="M1305.03 518.688L1312.8 518.688L1312.8 526.459L1305.03 526.459L1305.03 518.688z"/>
<path class="l5" d="M1242.86 565.314L1250.63 565.314L1250.63 573.085L1242.86 573.085L1242.86 565.314z"/>
<path class="l5" d="M1305.03 611.94L1312.8 611.94L1312.8 619.711L1305.03 619.711L1305.03 611.94z"/>
<path class="l5" d="M1308.8 569.078L1309.04 569.078L1309.04 569.321L1308.8 569.321L1308.8 569.078z"/>
<path class="l1" d="M702.783 802.328L780.492 802.328"/>
<path class="l1" d="M640.615 848.954L640.615 880.038"/>
<path class="l1" d="M640.615 600.283L640.615 755.702"/>
<path class="l1" d="M780.492 677.993L780.492 802.328"/>
<path class="l1" d="M640.615 677.993L780.492 677.993"/>
<path class="l1" d="M780.492 802.328L873.743 802.328"/>
<path class="l1" d="M640.615 880.038L935.911 880.038"/>
<path class="l1" d="M935.911 848.954L935.911 880.038"/>
<path class="l1" d="M516.28 802.328L640.615 802.328"/>
<path class="l1" d="M516.28 802.328L516.28 880.038"/>
<path class="l1" d="M516.28 880.038L640.615 880.038"/>
<path class="l1" d="M935.911 802.328L1060.25 802.328"/>
<path class="l1" d="M1060.25 802.328L1060.25 880.038"/>
<path class="l1" d="M935.911 880.038L1060.25 880.038"/>
<path class="l1" d="M935.911 615.825L935.911 755.702"/>
<path class="l1" d="M998.079 149.568L1075.79 149.568"/>
<path class="l1" d="M1075.79 149.568L1075.79 227.278"/>
<path class="l1" d="M935.911 227.278L1075.79 227.278"/>
<path class="l1" d="M796.034 149.568L935.911 149.568"/>
<path class="l1" d="M796.034 40.7749L796.034 149.568"/>
<path class="l1" d="M796.034 40.7749L935.911 40.7749"/>
<path class="l1" d="M935.911 40.7749L935.911 102.943"/>
<path class="l1" d="M1075.79 149.568L1169.04 149.568"/>
<path class="l1" d="M935.911 40.7749L1231.21 40.7749"/>
<path class="l1" d="M1308.92 40.7749L1308.92 102.943"/>
<path class="l1" d="M1308.92 149.568L1433.25 149.568"/>
<path class="l1" d="M1433.25 40.7749L1433.25 149.568"/>
<path class="l1" d="M1308.92 40.7749L1433.25 40.7749"/>
<path class="l1" d="M1308.92 693.535L1308.92 755.702"/>
<path class="l1" d="M1060.25 880.038L1231.21 880.038"/>
<path class="l1" d="M1308.92 848.954L1308.92 880.038"/>
<path class="l1" d="M1308.92 802.328L1464.34 802.328"/>
<path class="l1" d="M1464.34 802.328L1464.34 880.038"/>
<path class="l1" d="M1308.92 880.038L1464.34 880.038"/>
<path class="l1" d="M1200.12 802.328L1246.75 802.328"/>
<path class="l1" d="M1231.21 40.7749L1308.92 40.7749"/>
<path class="l1" d="M1231.21 880.038L1308.92 880.038"/>
<path class="l1" d="M1169.04 149.568L1246.75 149.568"/>
<path class="l1" d="M127.732 367.155L189.9 367.155"/>
<path class="l1" d="M127.732 289.445L205.442 289.445"/>
<path class="l1" d="M127.732 320.529L189.9 320.529"/>
<path class="l1" d="M127.732 398.239L189.9 398.239"/>
<path class="l5" d="M127.732 429.322L189.9 429.322"/>
<path class="l1" d="M516.28 553.658L516.28 802.328"/>
<path class="l1" d="M516.28 553.658L640.615 553.658"/>
<path class="l5" d="M640.615 382.697L640.615 507.032"/>
<path class="l5" d="M702.783 553.658L780.492 553.658"/>
<path class="l5" d="M780.492 460.406L780.492 553.658"/>
<path class="l5" d="M640.615 460.406L780.492 460.406"/>
<path class="l1" d="M935.911 600.283L935.911 615.825"/>
<path class="l1" d="M1060.25 553.658L1060.25 802.328"/>
<path class="l1" d="M935.911 553.658L1060.25 553.658"/>
<path class="l5" d="M780.492 553.658L873.743 553.658"/>
<path class="l1" d="M935.911 351.613L935.911 507.032"/>
<path class="l1" d="M935.911 196.194L935.911 258.362"/>
<path class="l1" d="M998.079 304.987L1075.79 304.987"/>
<path class="l1" d="M1075.79 304.987L1075.79 398.239"/>
<path class="l1" d="M935.911 398.239L1075.79 398.239"/>
<path class="l1" d="M1075.79 304.987L1246.75 304.987"/>
<path class="l1" d="M1308.92 196.194L1308.92 258.362"/>
<path class="l1" d="M1433.25 149.568L1433.25 304.987"/>
<path class="l1" d="M1308.92 304.987L1433.25 304.987"/>
<path class="l1" d="M1308.92 351.613L1308.92 444.864"/>
<path class="l1" d="M1308.92 615.825L1308.92 709.077"/>
<path class="l1" d="M1308.92 569.2L1464.34 569.2"/>
<path class="l1" d="M1464.34 569.2L1464.34 802.328"/>
<path class="l5" d="M1169.04 569.2L1246.75 569.2"/>
<path class="l1" d="M1308.92 475.948L1308.92 522.574"/>
<path class="l1" d="M796.034 304.987L935.911 304.987"/>
<path class="l1" d="M796.034 149.568L796.034 304.987"/>
<circle class="l1" cx="796.034" cy="149.568" r="6.21676"/>
<circle class="l1" cx="1075.79" cy="304.987" r="6.21676"/>
<circle class="l1" cx="935.911" cy="40.7749" r="6.21676"/>
<circle class="l1" cx="935.911" cy="40.7749" r="6.21676"/>
<circle class="l1" cx="935.911" cy="40.7749" r="6.21676"/>
<circle class="l1" cx="796.034" cy="149.568" r="6.21676"/>
<circle class="l1" cx="796.034" cy="149.568" r="6.21676"/>
<circle class="l1" cx="935.911" cy="227.278" r="6.21676"/>
<circle class="l1" cx="1075.79" cy="149.568" r="6.21676"/>
<circle class="l1" cx="935.911" cy="398.239" r="6.21676"/>
<circle class="l5" cx="780.492" cy="553.658" r="6.21676"/>
<circle class="l5" cx="640.615" cy="460.406" r="6.21676"/>
<circle class="l5" cx="780.492" cy="553.658" r="6.21676"/>
<circle class="l5" cx="780.492" cy="553.658" r="6.21676"/>
<circle class="l1" cx="516.28" cy="802.328" r="6.21676"/>
<circle class="l1" cx="935.911" cy="880.038" r="6.21676"/>
<circle class="l1" cx="1060.25" cy="880.038" r="6.21676"/>
<circle class="l1" cx="1060.25" cy="802.328" r="6.21676"/>
<circle class="l1" cx="640.615" cy="880.038" r="6.21676"/>
<circle class="l1" cx="516.28" cy="802.328" r="6.21676"/>
<circle class="l1" cx="516.28" cy="802.328" r="6.21676"/>
<circle class="l1" cx="935.911" cy="880.038" r="6.21676"/>
<circle class="l1" cx="640.615" cy="880.038" r="6.21676"/>
<circle class="l1" cx="935.911" cy="880.038" r="6.21676"/>
<circle class="l1" cx="780.492" cy="802.328" r="6.21676"/>
<circle class="l1" cx="640.615" cy="677.993" r="6.21676"/>
<circle class="l1" cx="780.492" cy="802.328" r="6.21676"/>
<circle class="l1" cx="640.615" cy="880.038" r="6.21676"/>
<circle class="l1" cx="780.492" cy="802.328" r="6.21676"/>
<circle class="l1" cx="1433.25" cy="149.568" r="6.21676"/>
<circle class="l1" cx="1075.79" cy="304.987" r="6.21676"/>
<circle class="l1" cx="1075.79" cy="304.987" r="6.21676"/>
<circle class="l1" cx="1308.92" cy="40.7749" r="6.21676"/>
<circle class="l1" cx="1308.92" cy="40.7749" r="6.21676"/>
<circle class="l1" cx="1433.25" cy="149.568" r="6.21676"/>
<circle class="l1" cx="1433.25" cy="149.568" r="6.21676"/>
<circle class="l1" cx="1308.92" cy="40.7749" r="6.21676"/>
<circle class="l1" cx="1075.79" cy="149.568" r="6.21676"/>
<circle class="l1" cx="1075.79" cy="149.568" r="6.21676"/>
<circle class="l1" cx="1464.34" cy="802.328" r="6.21676"/>
<circle class="l1" cx="1308.92" cy="709.077" r="6.21676"/>
<circle class="l1" cx="1060.25" cy="802.328" r="6.21676"/>
<circle class="l1" cx="1308.92" cy="880.038" r="6.21676"/>
<circle class="l1" cx="1308.92" cy="880.038" r="6.21676"/>
<circle class="l1" cx="1464.34" cy="802.328" r="6.21676"/>
<circle class="l1" cx="1464.34" cy="802.328" r="6.21676"/>
<circle class="l1" cx="1308.92" cy="880.038" r="6.21676"/>
<circle class="l1" cx="1060.25" cy="880.038" r="6.21676"/>
<circle class="l1" cx="1308.92" cy="693.535" r="6.21676"/>
<circle class="l1" cx="1060.25" cy="802.328" r="6.21676"/>
<circle class="l1" cx="1060.25" cy="880.038" r="6.21676"/>
</svg>
