<svg xmlns="http://www.w3.org/2000/svg" xmlns:xlink="http://www.w3.org/1999/xlink" width="1848" height="919" version="1.1">
<style type="text/css">
.l0{
 fill: #ffffff;
  stroke: #ffffff;
  stroke-linecap:round;
  stroke-linejoin:round;
  stroke-width: 1.02487;
}
.l1{
 fill: #0044ee;
  stroke: #0044ee;
  stroke-linecap:round;
  stroke-linejoin:round;
  stroke-width: 1.02487;
}
.l2{
  fill: none;
  stroke: #aaaaaa;
  stroke-linecap:round;
  stroke-linejoin:round;
  stroke-width: 1.02487;
}
.l3{
 fill: #222222; fill-opacity: 0.5;
  stroke: #222222;
  stroke-linecap:round;
  stroke-linejoin:round;
  stroke-width: 1.02487;
}
.l4{
 fill: #229900;
  stroke: #229900;
  stroke-linecap:round;
  stroke-linejoin:round;
  stroke-width: 1.02487;
}
.l5{
 fill: #bb2200;
  stroke: #bb2200;
  stroke-linecap:round;
  stroke-linejoin:round;
  stroke-width: 1.02487;
}
.l6{
 fill: #00ccee; fill-opacity: 0.5;
  stroke: #00ccee;
  stroke-linecap:round;
  stroke-linejoin:round;
  stroke-width: 1.02487;
}
.l7{
 fill: #ff0000; fill-opacity: 0.5;
  stroke: #ff0000;
  stroke-linecap:round;
  stroke-linejoin:round;
  stroke-width: 1.02487;
}
.l8{
 fill: #888800; fill-opacity: 0.5;
  stroke: #888800;
  stroke-linecap:round;
  stroke-linejoin:round;
  stroke-width: 1.02487;
}
.l9{
 fill: #00aaaa; fill-opacity: 0.5;
  stroke: #00aaaa;
  stroke-linecap:round;
  stroke-linejoin:round;
  stroke-width: 1.02487;
}
.l10{
 fill: #880088;
  stroke: #880088;
  stroke-linecap:round;
  stroke-linejoin:round;
  stroke-width: 1.02487;
}
.l11{
 fill: #00ff00; fill-opacity: 0.5;
  stroke: #00ff00;
  stroke-linecap:round;
  stroke-linejoin:round;
  stroke-width: 1.02487;
}
.l12{
 fill: #0000cc; fill-opacity: 0.5;
  stroke: #0000cc;
  stroke-linecap:round;
  stroke-linejoin:round;
  stroke-width: 1.02487;
}
.l13{
 fill: #666600; fill-opacity: 0.5;
  stroke: #666600;
  stroke-linecap:round;
  stroke-linejoin:round;
  stroke-width: 1.02487;
}
.l14{
  fill: none;
  stroke: #557755;
  stroke-linecap:round;
  stroke-linejoin:round;
  stroke-width: 1.02487;
}
.l15{
 fill: #aa2222; fill-opacity: 0.5;
  stroke: #aa2222;
  stroke-linecap:round;
  stroke-linejoin:round;
  stroke-width: 1.02487;
}
.l16{
 fill: #7ccc40; fill-opacity: 0.5;
  stroke: #7ccc40;
  stroke-linecap:round;
  stroke-linejoin:round;
  stroke-width: 1.02487;
}
.l17{
  fill: none;
  stroke: #00ffcc;
  stroke-linecap:round;
  stroke-linejoin:round;
  stroke-width: 1.02487;
}
.l18{
 fill: #ce0097; fill-opacity: 0.5;
  stroke: #ce0097;
  stroke-linecap:round;
  stroke-linejoin:round;
  stroke-width: 1.02487;
}
.l19{
  fill: none;
  stroke: #d2d46b;
  stroke-linecap:round;
  stroke-linejoin:round;
  stroke-width: 1.02487;
}
.l20{
  fill: none;
  stroke: #ef6158;
  stroke-linecap:round;
  stroke-linejoin:round;
  stroke-width: 1.02487;
}
.l21{
  fill: none;
  stroke: #fdb200;
  stroke-linecap:round;
  stroke-linejoin:round;
  stroke-width: 1.02487;
}
text {font-family: Sans-Serif;}
</style>
<rect class="l0" x="0" y="0" width="1848" height="919"/>
<text fill="#0044ee"  xml:space="preserve" font-size="16.284" transform="translate(53.4238, 585.259)" >IN</text>
<text fill="#0044ee"  xml:space="preserve" font-size="16.284" transform="translate(88.0684, 546.708)" >VDD</text>
<text fill="#0044ee"  xml:space="preserve" font-size="16.284" transform="translate(88.0684, 565.687)" >VSS</text>
<text fill="#0044ee"  xml:space="preserve" font-size="16.284" transform="translate(88.2166, 623.217)" >OUT</text>
<text fill="#0044ee"  xml:space="preserve" font-size="16.284" transform="translate(163.973, 889.516)" >VSS</text>
<text fill="#0044ee"  xml:space="preserve" font-size="16.284" transform="translate(148.484, 728.194)" >VDD</text>
<text fill="#0044ee"  xml:space="preserve" font-size="16.284" transform="translate(218.697, 728.194)" >RSTB</text>
<text fill="#0044ee"  xml:space="preserve" font-size="16.284" transform="translate(92.568, 842.068)" >IN</text>
<text fill="#0044ee"  xml:space="preserve" font-size="16.284" transform="translate(439.169, 889.516)" >VSS</text>
<text fill="#0044ee"  xml:space="preserve" font-size="16.284" transform="translate(423.679, 728.194)" >VDD</text>
<text fill="#0044ee"  xml:space="preserve" font-size="16.284" transform="translate(493.893, 728.194)" >RSTB</text>
<text fill="#0044ee"  xml:space="preserve" font-size="16.284" transform="translate(714.364, 889.516)" >VSS</text>
<text fill="#0044ee"  xml:space="preserve" font-size="16.284" transform="translate(698.875, 728.194)" >VDD</text>
<text fill="#0044ee"  xml:space="preserve" font-size="16.284" transform="translate(769.088, 728.194)" >RSTB</text>
<text fill="#0044ee"  xml:space="preserve" font-size="16.284" transform="translate(1018.03, 889.516)" >VSS</text>
<text fill="#0044ee"  xml:space="preserve" font-size="16.284" transform="translate(1002.54, 728.194)" >VDD</text>
<text fill="#0044ee"  xml:space="preserve" font-size="16.284" transform="translate(1072.75, 728.194)" >RSTB</text>
<text fill="#0044ee"  xml:space="preserve" font-size="16.284" transform="translate(1293.22, 889.516)" >VSS</text>
<text fill="#0044ee"  xml:space="preserve" font-size="16.284" transform="translate(1277.73, 728.194)" >VDD</text>
<text fill="#0044ee"  xml:space="preserve" font-size="16.284" transform="translate(1347.95, 728.194)" >RSTB</text>
<text fill="#0044ee"  xml:space="preserve" font-size="16.284" transform="translate(1596.89, 889.516)" >VSS</text>
<text fill="#0044ee"  xml:space="preserve" font-size="16.284" transform="translate(1581.4, 728.194)" >VDD</text>
<text fill="#0044ee"  xml:space="preserve" font-size="16.284" transform="translate(1651.61, 728.194)" >RSTB</text>
<text fill="#0044ee"  xml:space="preserve" font-size="16.284" transform="translate(1784.46, 785.131)" >OUT</text>
<text fill="#0044ee"  xml:space="preserve" font-size="16.284" transform="translate(28.4238, 604.238)" >RSTB</text>
<text fill="#222222"  xml:space="preserve" font-size="4.93454" transform="translate(187.856, 775.419)" >VDD</text>
<text fill="#222222"  xml:space="preserve" font-size="4.93454" transform="translate(206.835, 775.419)" >RSTB</text>
<text fill="#222222"  xml:space="preserve" font-size="4.93454" transform="translate(197.346, 848.963)" >VSS</text>
<text fill="#222222"  xml:space="preserve" font-size="4.93454" transform="translate(185.484, 837.101)" >CLK</text>
<text fill="#222222"  xml:space="preserve" font-size="4.93454" transform="translate(175.994, 780.164)" >D</text>
<text fill="#222222"  xml:space="preserve" font-size="4.93454" transform="translate(232.931, 780.164)" >Q</text>
<text fill="#222222"  xml:space="preserve" font-size="4.93454" transform="translate(230.559, 837.101)" >QB</text>
<text fill="#222222"  xml:space="preserve" font-size="9.86908" transform="translate(185.484, 810.741)" >xDFF1</text>
<text fill="#222222"  xml:space="preserve" font-size="4.93454" transform="translate(463.052, 775.419)" >VDD</text>
<text fill="#222222"  xml:space="preserve" font-size="4.93454" transform="translate(482.031, 775.419)" >RSTB</text>
<text fill="#222222"  xml:space="preserve" font-size="4.93454" transform="translate(472.541, 848.963)" >VSS</text>
<text fill="#222222"  xml:space="preserve" font-size="4.93454" transform="translate(460.679, 837.101)" >CLK</text>
<text fill="#222222"  xml:space="preserve" font-size="4.93454" transform="translate(451.19, 780.164)" >D</text>
<text fill="#222222"  xml:space="preserve" font-size="4.93454" transform="translate(508.127, 780.164)" >Q</text>
<text fill="#222222"  xml:space="preserve" font-size="4.93454" transform="translate(505.754, 837.101)" >QB</text>
<text fill="#222222"  xml:space="preserve" font-size="9.86908" transform="translate(460.679, 810.741)" >xDFF2</text>
<text fill="#222222"  xml:space="preserve" font-size="4.93454" transform="translate(738.247, 775.419)" >VDD</text>
<text fill="#222222"  xml:space="preserve" font-size="4.93454" transform="translate(757.226, 775.419)" >RSTB</text>
<text fill="#222222"  xml:space="preserve" font-size="4.93454" transform="translate(747.737, 848.963)" >VSS</text>
<text fill="#222222"  xml:space="preserve" font-size="4.93454" transform="translate(735.875, 837.101)" >CLK</text>
<text fill="#222222"  xml:space="preserve" font-size="4.93454" transform="translate(726.385, 780.164)" >D</text>
<text fill="#222222"  xml:space="preserve" font-size="4.93454" transform="translate(783.322, 780.164)" >Q</text>
<text fill="#222222"  xml:space="preserve" font-size="4.93454" transform="translate(780.95, 837.101)" >QB</text>
<text fill="#222222"  xml:space="preserve" font-size="9.86908" transform="translate(735.875, 810.741)" >xDFF3</text>
<text fill="#222222"  xml:space="preserve" font-size="4.93454" transform="translate(1041.91, 775.419)" >VDD</text>
<text fill="#222222"  xml:space="preserve" font-size="4.93454" transform="translate(1060.89, 775.419)" >RSTB</text>
<text fill="#222222"  xml:space="preserve" font-size="4.93454" transform="translate(1051.4, 848.963)" >VSS</text>
<text fill="#222222"  xml:space="preserve" font-size="4.93454" transform="translate(1039.54, 837.101)" >CLK</text>
<text fill="#222222"  xml:space="preserve" font-size="4.93454" transform="translate(1030.05, 780.164)" >D</text>
<text fill="#222222"  xml:space="preserve" font-size="4.93454" transform="translate(1086.99, 780.164)" >Q</text>
<text fill="#222222"  xml:space="preserve" font-size="4.93454" transform="translate(1084.61, 837.101)" >QB</text>
<text fill="#222222"  xml:space="preserve" font-size="9.86908" transform="translate(1039.54, 810.741)" >xDFF4</text>
<text fill="#222222"  xml:space="preserve" font-size="4.93454" transform="translate(1317.11, 775.419)" >VDD</text>
<text fill="#222222"  xml:space="preserve" font-size="4.93454" transform="translate(1336.09, 775.419)" >RSTB</text>
<text fill="#222222"  xml:space="preserve" font-size="4.93454" transform="translate(1326.6, 848.963)" >VSS</text>
<text fill="#222222"  xml:space="preserve" font-size="4.93454" transform="translate(1314.73, 837.101)" >CLK</text>
<text fill="#222222"  xml:space="preserve" font-size="4.93454" transform="translate(1305.24, 780.164)" >D</text>
<text fill="#222222"  xml:space="preserve" font-size="4.93454" transform="translate(1362.18, 780.164)" >Q</text>
<text fill="#222222"  xml:space="preserve" font-size="4.93454" transform="translate(1359.81, 837.101)" >QB</text>
<text fill="#222222"  xml:space="preserve" font-size="9.86908" transform="translate(1314.73, 810.741)" >xDFF5</text>
<text fill="#222222"  xml:space="preserve" font-size="4.93454" transform="translate(1620.77, 775.419)" >VDD</text>
<text fill="#222222"  xml:space="preserve" font-size="4.93454" transform="translate(1639.75, 775.419)" >RSTB</text>
<text fill="#222222"  xml:space="preserve" font-size="4.93454" transform="translate(1630.26, 848.963)" >VSS</text>
<text fill="#222222"  xml:space="preserve" font-size="4.93454" transform="translate(1618.4, 837.101)" >CLK</text>
<text fill="#222222"  xml:space="preserve" font-size="4.93454" transform="translate(1608.91, 780.164)" >D</text>
<text fill="#222222"  xml:space="preserve" font-size="4.93454" transform="translate(1665.85, 780.164)" >Q</text>
<text fill="#222222"  xml:space="preserve" font-size="4.93454" transform="translate(1663.47, 837.101)" >QB</text>
<text fill="#222222"  xml:space="preserve" font-size="9.86908" transform="translate(1618.4, 810.741)" >xDFF6</text>
<path class="l4" d="M173.622 768.566L173.622 853.972"/>
<path class="l4" d="M173.622 768.566L240.049 768.566"/>
<path class="l4" d="M240.049 768.566L240.049 853.972"/>
<path class="l4" d="M173.622 853.972L240.049 853.972"/>
<path class="l4" d="M173.622 844.482L183.112 834.993"/>
<path class="l4" d="M173.622 825.503L183.112 834.993"/>
<path class="l4" d="M154.643 834.993L173.622 834.993"/>
<path class="l4" d="M154.643 778.056L173.622 778.056"/>
<path class="l4" d="M240.049 778.056L259.028 778.056"/>
<path class="l4" d="M240.049 834.993L259.028 834.993"/>
<path class="l4" d="M192.601 749.587L192.601 768.566"/>
<path class="l4" d="M211.58 749.587L211.58 768.566"/>
<path class="l4" d="M202.091 853.972L202.091 872.951"/>
<path class="l4" d="M448.817 768.566L448.817 853.972"/>
<path class="l4" d="M448.817 768.566L515.244 768.566"/>
<path class="l4" d="M515.244 768.566L515.244 853.972"/>
<path class="l4" d="M448.817 853.972L515.244 853.972"/>
<path class="l4" d="M448.817 844.482L458.307 834.993"/>
<path class="l4" d="M448.817 825.503L458.307 834.993"/>
<path class="l4" d="M429.838 834.993L448.817 834.993"/>
<path class="l4" d="M429.838 778.056L448.817 778.056"/>
<path class="l4" d="M515.244 778.056L534.223 778.056"/>
<path class="l4" d="M515.244 834.993L534.223 834.993"/>
<path class="l4" d="M467.796 749.587L467.796 768.566"/>
<path class="l4" d="M486.775 749.587L486.775 768.566"/>
<path class="l4" d="M477.286 853.972L477.286 872.951"/>
<path class="l4" d="M724.013 768.566L724.013 853.972"/>
<path class="l4" d="M724.013 768.566L790.439 768.566"/>
<path class="l4" d="M790.439 768.566L790.439 853.972"/>
<path class="l4" d="M724.013 853.972L790.439 853.972"/>
<path class="l4" d="M724.013 844.482L733.502 834.993"/>
<path class="l4" d="M724.013 825.503L733.502 834.993"/>
<path class="l4" d="M705.034 834.993L724.013 834.993"/>
<path class="l4" d="M705.034 778.056L724.013 778.056"/>
<path class="l4" d="M790.439 778.056L809.418 778.056"/>
<path class="l4" d="M790.439 834.993L809.418 834.993"/>
<path class="l4" d="M742.992 749.587L742.992 768.566"/>
<path class="l4" d="M761.971 749.587L761.971 768.566"/>
<path class="l4" d="M752.481 853.972L752.481 872.951"/>
<path class="l4" d="M1027.68 768.566L1027.68 853.972"/>
<path class="l4" d="M1027.68 768.566L1094.1 768.566"/>
<path class="l4" d="M1094.1 768.566L1094.1 853.972"/>
<path class="l4" d="M1027.68 853.972L1094.1 853.972"/>
<path class="l4" d="M1027.68 844.482L1037.17 834.993"/>
<path class="l4" d="M1027.68 825.503L1037.17 834.993"/>
<path class="l4" d="M1008.7 834.993L1027.68 834.993"/>
<path class="l4" d="M1008.7 778.056L1027.68 778.056"/>
<path class="l4" d="M1094.1 778.056L1113.08 778.056"/>
<path class="l4" d="M1094.1 834.993L1113.08 834.993"/>
<path class="l4" d="M1046.66 749.587L1046.66 768.566"/>
<path class="l4" d="M1065.63 749.587L1065.63 768.566"/>
<path class="l4" d="M1056.15 853.972L1056.15 872.951"/>
<path class="l4" d="M1302.87 768.566L1302.87 853.972"/>
<path class="l4" d="M1302.87 768.566L1369.3 768.566"/>
<path class="l4" d="M1369.3 768.566L1369.3 853.972"/>
<path class="l4" d="M1302.87 853.972L1369.3 853.972"/>
<path class="l4" d="M1302.87 844.482L1312.36 834.993"/>
<path class="l4" d="M1302.87 825.503L1312.36 834.993"/>
<path class="l4" d="M1283.89 834.993L1302.87 834.993"/>
<path class="l4" d="M1283.89 778.056L1302.87 778.056"/>
<path class="l4" d="M1369.3 778.056L1388.28 778.056"/>
<path class="l4" d="M1369.3 834.993L1388.28 834.993"/>
<path class="l4" d="M1321.85 749.587L1321.85 768.566"/>
<path class="l4" d="M1340.83 749.587L1340.83 768.566"/>
<path class="l4" d="M1331.34 853.972L1331.34 872.951"/>
<path class="l4" d="M1606.54 768.566L1606.54 853.972"/>
<path class="l4" d="M1606.54 768.566L1672.96 768.566"/>
<path class="l4" d="M1672.96 768.566L1672.96 853.972"/>
<path class="l4" d="M1606.54 853.972L1672.96 853.972"/>
<path class="l4" d="M1606.54 844.482L1616.03 834.993"/>
<path class="l4" d="M1606.54 825.503L1616.03 834.993"/>
<path class="l4" d="M1587.56 834.993L1606.54 834.993"/>
<path class="l4" d="M1587.56 778.056L1606.54 778.056"/>
<path class="l4" d="M1672.96 778.056L1691.94 778.056"/>
<path class="l4" d="M1672.96 834.993L1691.94 834.993"/>
<path class="l4" d="M1625.51 749.587L1625.51 768.566"/>
<path class="l4" d="M1644.49 749.587L1644.49 768.566"/>
<path class="l4" d="M1635 853.972L1635 872.951"/>
<path class="l5" d="M190.229 747.215L194.973 747.215L194.973 751.96L190.229 751.96L190.229 747.215z"/>
<path class="l5" d="M199.718 870.578L204.463 870.578L204.463 875.323L199.718 875.323L199.718 870.578z"/>
<path class="l5" d="M152.271 775.683L157.015 775.683L157.015 780.428L152.271 780.428L152.271 775.683z"/>
<path class="l5" d="M152.271 832.62L157.015 832.62L157.015 837.365L152.271 837.365L152.271 832.62z"/>
<path class="l5" d="M256.655 775.683L261.4 775.683L261.4 780.428L256.655 780.428L256.655 775.683z"/>
<path class="l5" d="M256.655 832.62L261.4 832.62L261.4 837.365L256.655 837.365L256.655 832.62z"/>
<path class="l5" d="M209.208 747.215L213.952 747.215L213.952 751.96L209.208 751.96L209.208 747.215z"/>
<path class="l5" d="M83.4718 578.776L88.2166 578.776"/>
<path class="l5" d="M83.4718 578.776L79.9133 574.032L71.61 574.032L75.1685 578.776L71.61 583.521L79.9133 583.521L83.4718 578.776"/>
<path class="l5" d="M87.0304 577.59L89.4028 577.59L89.4028 579.963L87.0304 579.963L87.0304 577.59z"/>
<path class="l5" d="M69.2376 540.818L72.2031 540.818"/>
<path class="l5" d="M82.2857 545.563L85.8442 540.818L82.2857 536.074L75.7616 536.074L72.2031 540.818L75.7616 545.563L82.2857 545.563"/>
<path class="l5" d="M68.0514 539.632L70.4238 539.632L70.4238 542.005L68.0514 542.005L68.0514 539.632z"/>
<path class="l5" d="M69.2376 559.797L72.2031 559.797"/>
<path class="l5" d="M82.2857 564.542L85.8442 559.797L82.2857 555.053L75.7616 555.053L72.2031 559.797L75.7616 564.542L82.2857 564.542"/>
<path class="l5" d="M68.0514 558.611L70.4238 558.611L70.4238 560.984L68.0514 560.984L68.0514 558.611z"/>
<path class="l5" d="M69.2376 616.734L77.5409 616.734"/>
<path class="l5" d="M85.8442 616.734L82.2857 611.99L73.9824 611.99L77.5409 616.734L73.9824 621.479L82.2857 621.479L85.8442 616.734"/>
<path class="l5" d="M68.0514 615.548L70.4238 615.548L70.4238 617.921L68.0514 617.921L68.0514 615.548z"/>
<path class="l5" d="M200.904 881.254L203.277 881.254L203.277 883.626L200.904 883.626L200.904 881.254z"/>
<path class="l5" d="M191.415 719.933L193.787 719.933L193.787 722.305L191.415 722.305L191.415 719.933z"/>
<path class="l5" d="M210.394 719.933L212.766 719.933L212.766 722.305L210.394 722.305L210.394 719.933z"/>
<path class="l5" d="M115.499 833.807L117.871 833.807L117.871 836.179L115.499 836.179L115.499 833.807z"/>
<path class="l5" d="M465.424 747.215L470.169 747.215L470.169 751.96L465.424 751.96L465.424 747.215z"/>
<path class="l5" d="M474.914 870.578L479.658 870.578L479.658 875.323L474.914 875.323L474.914 870.578z"/>
<path class="l5" d="M427.466 775.683L432.211 775.683L432.211 780.428L427.466 780.428L427.466 775.683z"/>
<path class="l5" d="M427.466 832.62L432.211 832.62L432.211 837.365L427.466 837.365L427.466 832.62z"/>
<path class="l5" d="M531.851 775.683L536.595 775.683L536.595 780.428L531.851 780.428L531.851 775.683z"/>
<path class="l5" d="M531.851 832.62L536.595 832.62L536.595 837.365L531.851 837.365L531.851 832.62z"/>
<path class="l5" d="M484.403 747.215L489.148 747.215L489.148 751.96L484.403 751.96L484.403 747.215z"/>
<path class="l5" d="M476.1 881.254L478.472 881.254L478.472 883.626L476.1 883.626L476.1 881.254z"/>
<path class="l5" d="M466.61 719.933L468.983 719.933L468.983 722.305L466.61 722.305L466.61 719.933z"/>
<path class="l5" d="M485.589 719.933L487.962 719.933L487.962 722.305L485.589 722.305L485.589 719.933z"/>
<path class="l5" d="M740.619 747.215L745.364 747.215L745.364 751.96L740.619 751.96L740.619 747.215z"/>
<path class="l5" d="M750.109 870.578L754.854 870.578L754.854 875.323L750.109 875.323L750.109 870.578z"/>
<path class="l5" d="M702.661 775.683L707.406 775.683L707.406 780.428L702.661 780.428L702.661 775.683z"/>
<path class="l5" d="M702.661 832.62L707.406 832.62L707.406 837.365L702.661 837.365L702.661 832.62z"/>
<path class="l5" d="M807.046 775.683L811.791 775.683L811.791 780.428L807.046 780.428L807.046 775.683z"/>
<path class="l5" d="M807.046 832.62L811.791 832.62L811.791 837.365L807.046 837.365L807.046 832.62z"/>
<path class="l5" d="M759.598 747.215L764.343 747.215L764.343 751.96L759.598 751.96L759.598 747.215z"/>
<path class="l5" d="M751.295 881.254L753.667 881.254L753.667 883.626L751.295 883.626L751.295 881.254z"/>
<path class="l5" d="M741.806 719.933L744.178 719.933L744.178 722.305L741.806 722.305L741.806 719.933z"/>
<path class="l5" d="M760.785 719.933L763.157 719.933L763.157 722.305L760.785 722.305L760.785 719.933z"/>
<path class="l5" d="M1044.28 747.215L1049.03 747.215L1049.03 751.96L1044.28 751.96L1044.28 747.215z"/>
<path class="l5" d="M1053.77 870.578L1058.52 870.578L1058.52 875.323L1053.77 875.323L1053.77 870.578z"/>
<path class="l5" d="M1006.33 775.683L1011.07 775.683L1011.07 780.428L1006.33 780.428L1006.33 775.683z"/>
<path class="l5" d="M1006.33 832.62L1011.07 832.62L1011.07 837.365L1006.33 837.365L1006.33 832.62z"/>
<path class="l5" d="M1110.71 775.683L1115.45 775.683L1115.45 780.428L1110.71 780.428L1110.71 775.683z"/>
<path class="l5" d="M1110.71 832.62L1115.45 832.62L1115.45 837.365L1110.71 837.365L1110.71 832.62z"/>
<path class="l5" d="M1063.26 747.215L1068.01 747.215L1068.01 751.96L1063.26 751.96L1063.26 747.215z"/>
<path class="l5" d="M1054.96 881.254L1057.33 881.254L1057.33 883.626L1054.96 883.626L1054.96 881.254z"/>
<path class="l5" d="M1045.47 719.933L1047.84 719.933L1047.84 722.305L1045.47 722.305L1045.47 719.933z"/>
<path class="l5" d="M1064.45 719.933L1066.82 719.933L1066.82 722.305L1064.45 722.305L1064.45 719.933z"/>
<path class="l5" d="M1319.48 747.215L1324.22 747.215L1324.22 751.96L1319.48 751.96L1319.48 747.215z"/>
<path class="l5" d="M1328.97 870.578L1333.71 870.578L1333.71 875.323L1328.97 875.323L1328.97 870.578z"/>
<path class="l5" d="M1281.52 775.683L1286.27 775.683L1286.27 780.428L1281.52 780.428L1281.52 775.683z"/>
<path class="l5" d="M1281.52 832.62L1286.27 832.62L1286.27 837.365L1281.52 837.365L1281.52 832.62z"/>
<path class="l5" d="M1385.91 775.683L1390.65 775.683L1390.65 780.428L1385.91 780.428L1385.91 775.683z"/>
<path class="l5" d="M1385.91 832.62L1390.65 832.62L1390.65 837.365L1385.91 837.365L1385.91 832.62z"/>
<path class="l5" d="M1338.46 747.215L1343.2 747.215L1343.2 751.96L1338.46 751.96L1338.46 747.215z"/>
<path class="l5" d="M1330.15 881.254L1332.53 881.254L1332.53 883.626L1330.15 883.626L1330.15 881.254z"/>
<path class="l5" d="M1320.66 719.933L1323.04 719.933L1323.04 722.305L1320.66 722.305L1320.66 719.933z"/>
<path class="l5" d="M1339.64 719.933L1342.02 719.933L1342.02 722.305L1339.64 722.305L1339.64 719.933z"/>
<path class="l5" d="M1623.14 747.215L1627.89 747.215L1627.89 751.96L1623.14 751.96L1623.14 747.215z"/>
<path class="l5" d="M1632.63 870.578L1637.38 870.578L1637.38 875.323L1632.63 875.323L1632.63 870.578z"/>
<path class="l5" d="M1585.18 775.683L1589.93 775.683L1589.93 780.428L1585.18 780.428L1585.18 775.683z"/>
<path class="l5" d="M1585.18 832.62L1589.93 832.62L1589.93 837.365L1585.18 837.365L1585.18 832.62z"/>
<path class="l5" d="M1689.57 775.683L1694.31 775.683L1694.31 780.428L1689.57 780.428L1689.57 775.683z"/>
<path class="l5" d="M1689.57 832.62L1694.31 832.62L1694.31 837.365L1689.57 837.365L1689.57 832.62z"/>
<path class="l5" d="M1642.12 747.215L1646.87 747.215L1646.87 751.96L1642.12 751.96L1642.12 747.215z"/>
<path class="l5" d="M1633.82 881.254L1636.19 881.254L1636.19 883.626L1633.82 883.626L1633.82 881.254z"/>
<path class="l5" d="M1624.33 719.933L1626.7 719.933L1626.7 722.305L1624.33 722.305L1624.33 719.933z"/>
<path class="l5" d="M1643.31 719.933L1645.68 719.933L1645.68 722.305L1643.31 722.305L1643.31 719.933z"/>
<path class="l5" d="M1776.16 776.87L1778.53 776.87L1778.53 779.242L1776.16 779.242L1776.16 776.87z"/>
<path class="l5" d="M83.4718 597.755L88.2166 597.755"/>
<path class="l5" d="M83.4718 597.755L79.9133 593.011L71.61 593.011L75.1685 597.755L71.61 602.5L79.9133 602.5L83.4718 597.755"/>
<path class="l5" d="M87.0304 596.569L89.4028 596.569L89.4028 598.942L87.0304 598.942L87.0304 596.569z"/>
<path class="l1" d="M192.601 711.629L192.601 749.587"/>
<path class="l1" d="M211.58 711.629L211.58 749.587"/>
<path class="l1" d="M107.196 778.056L154.643 778.056"/>
<path class="l1" d="M107.196 834.993L154.643 834.993"/>
<path class="l1" d="M202.091 872.951L202.091 901.419"/>
<path class="l1" d="M259.028 834.993L315.964 834.993"/>
<path class="l1" d="M315.964 692.65L315.964 834.993"/>
<path class="l1" d="M97.7061 692.65L315.964 692.65"/>
<path class="l1" d="M97.7061 692.65L97.7061 778.056"/>
<path class="l1" d="M97.7061 778.056L107.196 778.056"/>
<path class="l1" d="M259.028 778.056L353.922 778.056"/>
<path class="l1" d="M353.922 778.056L353.922 834.993"/>
<path class="l1" d="M467.796 711.629L467.796 749.587"/>
<path class="l1" d="M486.775 711.629L486.775 749.587"/>
<path class="l1" d="M382.391 778.056L429.838 778.056"/>
<path class="l1" d="M477.286 872.951L477.286 901.419"/>
<path class="l1" d="M534.223 834.993L591.16 834.993"/>
<path class="l1" d="M591.16 692.65L591.16 834.993"/>
<path class="l1" d="M372.901 692.65L591.16 692.65"/>
<path class="l1" d="M372.901 692.65L372.901 778.056"/>
<path class="l1" d="M372.901 778.056L382.391 778.056"/>
<path class="l1" d="M534.223 778.056L629.118 778.056"/>
<path class="l1" d="M629.118 778.056L629.118 834.993"/>
<path class="l1" d="M742.992 711.629L742.992 749.587"/>
<path class="l1" d="M761.971 711.629L761.971 749.587"/>
<path class="l1" d="M657.586 778.056L705.034 778.056"/>
<path class="l1" d="M752.481 872.951L752.481 901.419"/>
<path class="l1" d="M809.418 834.993L866.355 834.993"/>
<path class="l1" d="M866.355 692.65L866.355 834.993"/>
<path class="l1" d="M648.097 692.65L866.355 692.65"/>
<path class="l1" d="M648.097 692.65L648.097 778.056"/>
<path class="l1" d="M648.097 778.056L657.586 778.056"/>
<path class="l1" d="M809.418 778.056L904.313 778.056"/>
<path class="l1" d="M904.313 778.056L904.313 834.993"/>
<path class="l1" d="M1046.66 711.629L1046.66 749.587"/>
<path class="l1" d="M1065.63 711.629L1065.63 749.587"/>
<path class="l1" d="M961.25 778.056L1008.7 778.056"/>
<path class="l1" d="M1056.15 872.951L1056.15 901.419"/>
<path class="l1" d="M1113.08 834.993L1170.02 834.993"/>
<path class="l1" d="M1170.02 692.65L1170.02 834.993"/>
<path class="l1" d="M951.761 692.65L1170.02 692.65"/>
<path class="l1" d="M951.761 692.65L951.761 778.056"/>
<path class="l1" d="M951.761 778.056L961.25 778.056"/>
<path class="l1" d="M1113.08 778.056L1207.98 778.056"/>
<path class="l1" d="M1207.98 778.056L1207.98 834.993"/>
<path class="l1" d="M1207.98 778.056L1207.98 834.993"/>
<path class="l1" d="M1321.85 711.629L1321.85 749.587"/>
<path class="l1" d="M1340.83 711.629L1340.83 749.587"/>
<path class="l1" d="M1236.45 778.056L1283.89 778.056"/>
<path class="l1" d="M1331.34 872.951L1331.34 901.419"/>
<path class="l1" d="M1388.28 834.993L1445.21 834.993"/>
<path class="l1" d="M1445.21 692.65L1445.21 834.993"/>
<path class="l1" d="M1226.96 692.65L1445.21 692.65"/>
<path class="l1" d="M1226.96 692.65L1226.96 778.056"/>
<path class="l1" d="M1226.96 778.056L1236.45 778.056"/>
<path class="l1" d="M1388.28 778.056L1483.17 778.056"/>
<path class="l1" d="M1483.17 778.056L1483.17 834.993"/>
<path class="l1" d="M1625.51 711.629L1625.51 749.587"/>
<path class="l1" d="M1644.49 711.629L1644.49 749.587"/>
<path class="l1" d="M1540.11 778.056L1587.56 778.056"/>
<path class="l1" d="M1635 872.951L1635 901.419"/>
<path class="l1" d="M1691.94 834.993L1748.88 834.993"/>
<path class="l1" d="M1748.88 692.65L1748.88 834.993"/>
<path class="l1" d="M1530.62 692.65L1748.88 692.65"/>
<path class="l1" d="M1530.62 692.65L1530.62 778.056"/>
<path class="l1" d="M1530.62 778.056L1540.11 778.056"/>
<path class="l1" d="M1691.94 778.056L1786.84 778.056"/>
<path class="l1" d="M353.922 834.993L429.838 834.993"/>
<path class="l1" d="M629.118 834.993L705.034 834.993"/>
<path class="l1" d="M932.782 834.993L1008.7 834.993"/>
<path class="l1" d="M904.313 834.993L932.782 834.993"/>
<path class="l1" d="M1483.17 834.993L1587.56 834.993"/>
<path class="l1" d="M1207.98 834.993L1283.89 834.993"/>
<circle class="l1" cx="1207.98" cy="778.056" r="3.7958"/>
<circle class="l1" cx="1207.98" cy="834.993" r="3.7958"/>
<circle class="l1" cx="1207.98" cy="778.056" r="3.7958"/>
<circle class="l1" cx="1207.98" cy="834.993" r="3.7958"/>
<circle class="l1" cx="1207.98" cy="778.056" r="3.7958"/>
<circle class="l1" cx="1207.98" cy="834.993" r="3.7958"/>
</svg>
