<svg xmlns="http://www.w3.org/2000/svg" xmlns:xlink="http://www.w3.org/1999/xlink" width="1848" height="919" version="1.1">
<style type="text/css">
.l0{
 fill: #ffffff;
  stroke: #ffffff;
  stroke-linecap:round;
  stroke-linejoin:round;
  stroke-width: 2.09641;
}
.l1{
 fill: #0044ee;
  stroke: #0044ee;
  stroke-linecap:round;
  stroke-linejoin:round;
  stroke-width: 2.09641;
}
.l2{
  fill: none;
  stroke: #aaaaaa;
  stroke-linecap:round;
  stroke-linejoin:round;
  stroke-width: 2.09641;
}
.l3{
 fill: #222222; fill-opacity: 0.5;
  stroke: #222222;
  stroke-linecap:round;
  stroke-linejoin:round;
  stroke-width: 2.09641;
}
.l4{
 fill: #229900;
  stroke: #229900;
  stroke-linecap:round;
  stroke-linejoin:round;
  stroke-width: 2.09641;
}
.l5{
 fill: #bb2200;
  stroke: #bb2200;
  stroke-linecap:round;
  stroke-linejoin:round;
  stroke-width: 2.09641;
}
.l6{
 fill: #00ccee; fill-opacity: 0.5;
  stroke: #00ccee;
  stroke-linecap:round;
  stroke-linejoin:round;
  stroke-width: 2.09641;
}
.l7{
 fill: #ff0000; fill-opacity: 0.5;
  stroke: #ff0000;
  stroke-linecap:round;
  stroke-linejoin:round;
  stroke-width: 2.09641;
}
.l8{
 fill: #888800; fill-opacity: 0.5;
  stroke: #888800;
  stroke-linecap:round;
  stroke-linejoin:round;
  stroke-width: 2.09641;
}
.l9{
 fill: #00aaaa; fill-opacity: 0.5;
  stroke: #00aaaa;
  stroke-linecap:round;
  stroke-linejoin:round;
  stroke-width: 2.09641;
}
.l10{
 fill: #880088;
  stroke: #880088;
  stroke-linecap:round;
  stroke-linejoin:round;
  stroke-width: 2.09641;
}
.l11{
 fill: #00ff00; fill-opacity: 0.5;
  stroke: #00ff00;
  stroke-linecap:round;
  stroke-linejoin:round;
  stroke-width: 2.09641;
}
.l12{
 fill: #0000cc; fill-opacity: 0.5;
  stroke: #0000cc;
  stroke-linecap:round;
  stroke-linejoin:round;
  stroke-width: 2.09641;
}
.l13{
 fill: #666600; fill-opacity: 0.5;
  stroke: #666600;
  stroke-linecap:round;
  stroke-linejoin:round;
  stroke-width: 2.09641;
}
.l14{
  fill: none;
  stroke: #557755;
  stroke-linecap:round;
  stroke-linejoin:round;
  stroke-width: 2.09641;
}
.l15{
 fill: #aa2222; fill-opacity: 0.5;
  stroke: #aa2222;
  stroke-linecap:round;
  stroke-linejoin:round;
  stroke-width: 2.09641;
}
.l16{
 fill: #7ccc40; fill-opacity: 0.5;
  stroke: #7ccc40;
  stroke-linecap:round;
  stroke-linejoin:round;
  stroke-width: 2.09641;
}
.l17{
  fill: none;
  stroke: #00ffcc;
  stroke-linecap:round;
  stroke-linejoin:round;
  stroke-width: 2.09641;
}
.l18{
 fill: #ce0097; fill-opacity: 0.5;
  stroke: #ce0097;
  stroke-linecap:round;
  stroke-linejoin:round;
  stroke-width: 2.09641;
}
.l19{
  fill: none;
  stroke: #d2d46b;
  stroke-linecap:round;
  stroke-linejoin:round;
  stroke-width: 2.09641;
}
.l20{
  fill: none;
  stroke: #ef6158;
  stroke-linecap:round;
  stroke-linejoin:round;
  stroke-width: 2.09641;
}
.l21{
  fill: none;
  stroke: #fdb200;
  stroke-linecap:round;
  stroke-linejoin:round;
  stroke-width: 2.09641;
}
text {font-family: Sans-Serif;}
</style>
<rect class="l0" x="0" y="0" width="1848" height="919"/>
<text fill="#0044ee"  xml:space="preserve" font-size="27.2533" transform="translate(66.9231, 648.782)" >VSS</text>
<text fill="#0044ee"  xml:space="preserve" font-size="27.2533" transform="translate(202.801, 842.894)" >VSS</text>
<text fill="#0044ee"  xml:space="preserve" font-size="20.1876" transform="translate(139.334, 899.281)" >GND</text>
<text fill="#0044ee"  xml:space="preserve" font-size="27.2533" transform="translate(823.959, 726.427)" >VSS</text>
<text fill="#0044ee"  xml:space="preserve" font-size="27.2533" transform="translate(1080.78, 493.493)" >OUT</text>
<text fill="#0044ee"  xml:space="preserve" font-size="27.2533" transform="translate(441.325, 493.493)" >IN</text>
<text fill="#0044ee"  xml:space="preserve" font-size="27.2533" transform="translate(194.801, 668.194)" >VDD</text>
<text fill="#0044ee"  xml:space="preserve" font-size="27.2533" transform="translate(680.081, 299.381)" >VDD</text>
<text fill="#0044ee"  xml:space="preserve" font-size="27.2533" transform="translate(358.091, 842.894)" >VSS</text>
<text fill="#0044ee"  xml:space="preserve" font-size="27.2533" transform="translate(383.091, 668.194)" >IN</text>
<text fill="#666600"  xml:space="preserve" font-size="20.1876" transform="translate(1150.27, 528.042)" >1</text>
<text fill="#666600"  xml:space="preserve" font-size="20.1876" transform="translate(1150.27, 610.54)" >2</text>
<text fill="#222222"  xml:space="preserve" font-size="20.1876" transform="translate(1202.1, 542.601)" >C1</text>
<text fill="#222222"  xml:space="preserve" font-size="20.1876" transform="translate(1202.1, 566.865)" >20f</text>
<text fill="#222222"  xml:space="preserve" font-size="20.1876" transform="translate(1202.1, 591.129)" >m=1</text>
<text fill="#222222"  xml:space="preserve" font-size="20.1876" transform="translate(163.598, 736.713)" >V1</text>
<text fill="#222222"  xml:space="preserve" font-size="20.1876" transform="translate(163.598, 785.241)" >0</text>
<text fill="#222222"  xml:space="preserve" font-size="20.1876" transform="translate(299.477, 736.713)" >V2</text>
<text fill="#222222"  xml:space="preserve" font-size="20.1876" transform="translate(299.477, 785.241)" >3</text>
<text fill="#222222"  xml:space="preserve" font-size="30.2815" transform="translate(37.4256, 64.0599)" >MODELS</text>
<text fill="#222222"  xml:space="preserve" font-size="30.2815" style="font-family:Monospace;" transform="translate(56.8368, 147.321)" >.include $::180MCU_MODELS/design.spice</text>
<text fill="#222222"  xml:space="preserve" font-size="30.2815" style="font-family:Monospace;" transform="translate(56.8368, 182.054)" >.lib $::180MCU_MODELS/sm141064.spice typical</text>
<text fill="#222222"  xml:space="preserve" font-size="30.2815" transform="translate(1454.44, 277.583)" >NGSPICE</text>
<text fill="#222222"  xml:space="preserve" font-size="30.2815" style="font-family:Monospace;" transform="translate(1473.85, 360.844)" >.control</text>
<text fill="#222222"  xml:space="preserve" font-size="30.2815" style="font-family:Monospace;" transform="translate(1473.85, 395.577)" >save all</text>
<text fill="#222222"  xml:space="preserve" font-size="30.2815" style="font-family:Monospace;" transform="translate(1473.85, 430.309)" >dc V3 0 3 0.01</text>
<text fill="#222222"  xml:space="preserve" font-size="30.2815" style="font-family:Monospace;" transform="translate(1473.85, 465.042)" >plot v(IN) v(OUT)</text>
<text fill="#222222"  xml:space="preserve" font-size="30.2815" style="font-family:Monospace;" transform="translate(1473.85, 499.775)" >op</text>
<text fill="#222222"  xml:space="preserve" font-size="30.2815" style="font-family:Monospace;" transform="translate(1473.85, 534.508)" >write inv_dc_tb.raw</text>
<text fill="#222222"  xml:space="preserve" font-size="30.2815" style="font-family:Monospace;" transform="translate(1473.85, 569.241)" >.endc</text>
<text fill="#222222"  xml:space="preserve" font-size="20.1876" transform="translate(454.766, 736.713)" >V3</text>
<text fill="#222222"  xml:space="preserve" font-size="20.1876" transform="translate(454.766, 785.241)" >3</text>
<text fill="#222222"  xml:space="preserve" font-size="10.0938" transform="translate(726.523, 448.512)" >VDD</text>
<text fill="#222222"  xml:space="preserve" font-size="10.0938" transform="translate(731.376, 569.832)" >VSS</text>
<text fill="#222222"  xml:space="preserve" font-size="10.0938" transform="translate(673.142, 506.745)" >IN</text>
<text fill="#222222"  xml:space="preserve" font-size="10.0938" transform="translate(838.137, 506.745)" >OUT</text>
<text fill="#222222"  xml:space="preserve" font-size="40.3753" transform="translate(765.345, 616.738)" >xTest_INV1</text>
<path class="l4" d="M1172.98 570.372L1172.98 618.9"/>
<path class="l4" d="M1172.98 502.433L1172.98 550.961"/>
<path class="l4" d="M1153.57 550.961L1192.39 550.961"/>
<path class="l4" d="M1153.57 570.372L1192.39 570.372"/>
<path class="l4" d="M1177.83 516.991L1187.54 516.991"/>
<path class="l4" d="M1182.69 512.138L1182.69 521.844"/>
<path class="l4" d="M129.629 711.103L139.334 711.103"/>
<path class="l4" d="M134.482 706.25L134.482 715.956"/>
<path class="l4" d="M124.776 696.545L124.776 813.012"/>
<circle class="l4" cx="124.776" cy="754.778" r="29.1168" style="fill:none;"/>
<path class="l4" d="M265.507 711.103L275.213 711.103"/>
<path class="l4" d="M270.36 706.25L270.36 715.956"/>
<path class="l4" d="M260.654 696.545L260.654 813.012"/>
<circle class="l4" cx="260.654" cy="754.778" r="29.1168" style="fill:none;"/>
<path class="l4" d="M124.776 871.245L124.776 895.509"/>
<path class="l4" d="M115.07 895.509L134.482 895.509"/>
<path class="l4" d="M124.776 905.215L134.482 895.509"/>
<path class="l4" d="M115.07 895.509L124.776 905.215"/>
<path class="l4" d="M27.72 75.3867L163.598 75.3867"/>
<path class="l4" d="M27.72 75.3867L27.72 114.209"/>
<path class="l4" d="M1444.74 288.91L1580.62 288.91"/>
<path class="l4" d="M1444.74 288.91L1444.74 327.732"/>
<path class="l4" d="M420.797 711.103L430.502 711.103"/>
<path class="l4" d="M425.649 706.25L425.649 715.956"/>
<path class="l4" d="M415.944 696.545L415.944 813.012"/>
<circle class="l4" cx="415.944" cy="754.778" r="29.1168" style="fill:none;"/>
<path class="l4" d="M668.289 385.966L668.289 502.433"/>
<path class="l4" d="M668.289 502.433L668.289 618.9"/>
<path class="l4" d="M551.822 502.433L668.289 502.433"/>
<path class="l4" d="M668.289 619.507L873.926 503.039"/>
<path class="l4" d="M667.683 385.966L873.32 502.433"/>
<path class="l4" d="M959.457 502.433L1037.1 502.433"/>
<path class="l4" d="M953.391 502.433L959.457 502.433"/>
<path class="l4" d="M745.934 347.143L745.934 424.788"/>
<path class="l4" d="M745.934 580.078L745.934 657.722"/>
<circle class="l4" cx="913.355" cy="502.433" r="39.1245" style="fill:none;"/>
<path class="l5" d="M1168.13 497.58L1177.83 497.58L1177.83 507.286L1168.13 507.286L1168.13 497.58z"/>
<path class="l5" d="M1168.13 614.047L1177.83 614.047L1177.83 623.753L1168.13 623.753L1168.13 614.047z"/>
<path class="l5" d="M119.923 691.692L129.629 691.692L129.629 701.398L119.923 701.398L119.923 691.692z"/>
<path class="l5" d="M119.923 808.159L129.629 808.159L129.629 817.865L119.923 817.865L119.923 808.159z"/>
<path class="l5" d="M255.801 691.692L265.507 691.692L265.507 701.398L255.801 701.398L255.801 691.692z"/>
<path class="l5" d="M255.801 808.159L265.507 808.159L265.507 817.865L255.801 817.865L255.801 808.159z"/>
<path class="l5" d="M122.35 655.296L127.202 655.296L127.202 660.149L122.35 660.149L122.35 655.296z"/>
<path class="l5" d="M258.228 849.408L263.081 849.408L263.081 854.261L258.228 854.261L258.228 849.408z"/>
<path class="l5" d="M119.923 866.393L129.629 866.393L129.629 876.098L119.923 876.098L119.923 866.393z"/>
<path class="l5" d="M879.386 732.941L884.239 732.941L884.239 737.794L879.386 737.794L879.386 732.941z"/>
<path class="l5" d="M1073.5 500.006L1078.35 500.006L1078.35 504.859L1073.5 504.859L1073.5 500.006z"/>
<path class="l5" d="M471.751 500.006L476.604 500.006L476.604 504.859L471.751 504.859L471.751 500.006z"/>
<path class="l5" d="M258.228 674.707L263.081 674.707L263.081 679.56L258.228 679.56L258.228 674.707z"/>
<path class="l5" d="M743.508 305.895L748.36 305.895L748.36 310.747L743.508 310.747L743.508 305.895z"/>
<path class="l5" d="M413.517 849.408L418.37 849.408L418.37 854.261L413.517 854.261L413.517 849.408z"/>
<path class="l5" d="M413.517 674.707L418.37 674.707L418.37 679.56L413.517 679.56L413.517 674.707z"/>
<path class="l5" d="M411.091 691.692L420.797 691.692L420.797 701.398L411.091 701.398L411.091 691.692z"/>
<path class="l5" d="M411.091 808.159L420.797 808.159L420.797 817.865L411.091 817.865L411.091 808.159z"/>
<path class="l5" d="M741.081 342.291L750.787 342.291L750.787 351.996L741.081 351.996L741.081 342.291z"/>
<path class="l5" d="M741.081 652.87L750.787 652.87L750.787 662.575L741.081 662.575L741.081 652.87z"/>
<path class="l5" d="M546.969 497.58L556.675 497.58L556.675 507.286L546.969 507.286L546.969 497.58z"/>
<path class="l5" d="M1032.25 497.58L1041.95 497.58L1041.95 507.286L1032.25 507.286L1032.25 497.58z"/>
<path class="l1" d="M745.934 288.91L745.934 347.143"/>
<path class="l1" d="M745.934 657.722L745.934 735.367"/>
<path class="l1" d="M1037.1 502.433L1172.98 502.433"/>
<path class="l1" d="M415.944 502.433L551.822 502.433"/>
<path class="l1" d="M1172.98 618.9L1172.98 735.367"/>
<path class="l1" d="M745.934 735.367L1172.98 735.367"/>
<path class="l1" d="M124.776 813.012L124.776 871.245"/>
<path class="l1" d="M124.776 657.722L124.776 696.545"/>
<path class="l1" d="M260.654 813.012L260.654 871.245"/>
<path class="l1" d="M260.654 657.722L260.654 696.545"/>
<path class="l1" d="M415.944 813.012L415.944 871.245"/>
<path class="l1" d="M415.944 657.722L415.944 696.545"/>
</svg>
