<svg xmlns="http://www.w3.org/2000/svg" xmlns:xlink="http://www.w3.org/1999/xlink" width="1848" height="919" version="1.1">
<style type="text/css">
.l0{
 fill: #ffffff;
  stroke: #ffffff;
  stroke-linecap:round;
  stroke-linejoin:round;
  stroke-width: 0.810706;
}
.l1{
 fill: #0044ee;
  stroke: #0044ee;
  stroke-linecap:round;
  stroke-linejoin:round;
  stroke-width: 0.810706;
}
.l2{
  fill: none;
  stroke: #aaaaaa;
  stroke-linecap:round;
  stroke-linejoin:round;
  stroke-width: 0.810706;
}
.l3{
 fill: #222222; fill-opacity: 0.5;
  stroke: #222222;
  stroke-linecap:round;
  stroke-linejoin:round;
  stroke-width: 0.810706;
}
.l4{
 fill: #229900;
  stroke: #229900;
  stroke-linecap:round;
  stroke-linejoin:round;
  stroke-width: 0.810706;
}
.l5{
 fill: #bb2200;
  stroke: #bb2200;
  stroke-linecap:round;
  stroke-linejoin:round;
  stroke-width: 0.810706;
}
.l6{
 fill: #00ccee; fill-opacity: 0.5;
  stroke: #00ccee;
  stroke-linecap:round;
  stroke-linejoin:round;
  stroke-width: 0.810706;
}
.l7{
 fill: #ff0000; fill-opacity: 0.5;
  stroke: #ff0000;
  stroke-linecap:round;
  stroke-linejoin:round;
  stroke-width: 0.810706;
}
.l8{
 fill: #888800; fill-opacity: 0.5;
  stroke: #888800;
  stroke-linecap:round;
  stroke-linejoin:round;
  stroke-width: 0.810706;
}
.l9{
 fill: #00aaaa; fill-opacity: 0.5;
  stroke: #00aaaa;
  stroke-linecap:round;
  stroke-linejoin:round;
  stroke-width: 0.810706;
}
.l10{
 fill: #880088;
  stroke: #880088;
  stroke-linecap:round;
  stroke-linejoin:round;
  stroke-width: 0.810706;
}
.l11{
 fill: #00ff00; fill-opacity: 0.5;
  stroke: #00ff00;
  stroke-linecap:round;
  stroke-linejoin:round;
  stroke-width: 0.810706;
}
.l12{
 fill: #0000cc; fill-opacity: 0.5;
  stroke: #0000cc;
  stroke-linecap:round;
  stroke-linejoin:round;
  stroke-width: 0.810706;
}
.l13{
 fill: #666600; fill-opacity: 0.5;
  stroke: #666600;
  stroke-linecap:round;
  stroke-linejoin:round;
  stroke-width: 0.810706;
}
.l14{
  fill: none;
  stroke: #557755;
  stroke-linecap:round;
  stroke-linejoin:round;
  stroke-width: 0.810706;
}
.l15{
 fill: #aa2222; fill-opacity: 0.5;
  stroke: #aa2222;
  stroke-linecap:round;
  stroke-linejoin:round;
  stroke-width: 0.810706;
}
.l16{
 fill: #7ccc40; fill-opacity: 0.5;
  stroke: #7ccc40;
  stroke-linecap:round;
  stroke-linejoin:round;
  stroke-width: 0.810706;
}
.l17{
  fill: none;
  stroke: #00ffcc;
  stroke-linecap:round;
  stroke-linejoin:round;
  stroke-width: 0.810706;
}
.l18{
 fill: #ce0097; fill-opacity: 0.5;
  stroke: #ce0097;
  stroke-linecap:round;
  stroke-linejoin:round;
  stroke-width: 0.810706;
}
.l19{
  fill: none;
  stroke: #d2d46b;
  stroke-linecap:round;
  stroke-linejoin:round;
  stroke-width: 0.810706;
}
.l20{
  fill: none;
  stroke: #ef6158;
  stroke-linecap:round;
  stroke-linejoin:round;
  stroke-width: 0.810706;
}
.l21{
  fill: none;
  stroke: #fdb200;
  stroke-linecap:round;
  stroke-linejoin:round;
  stroke-width: 0.810706;
}
text {font-family: Sans-Serif;}
</style>
<rect class="l0" x="0" y="0" width="1848" height="919"/>
<text fill="#0044ee"  xml:space="preserve" font-size="10.5392" transform="translate(705.954, 523.429)" >VSS</text>
<text fill="#0044ee"  xml:space="preserve" font-size="10.5392" transform="translate(758.499, 598.494)" >VSS</text>
<text fill="#0044ee"  xml:space="preserve" font-size="7.80679" transform="translate(734.46, 620.299)" >GND</text>
<text fill="#0044ee"  xml:space="preserve" font-size="10.5392" transform="translate(756.499, 530.935)" >VDD</text>
<text fill="#0044ee"  xml:space="preserve" font-size="10.5392" transform="translate(263.068, 846.209)" >VSS</text>
<text fill="#0044ee"  xml:space="preserve" font-size="10.5392" transform="translate(216.029, 726.105)" >VDD</text>
<text fill="#0044ee"  xml:space="preserve" font-size="10.5392" transform="translate(1769.88, 786.157)" >OUT</text>
<text fill="#222222"  xml:space="preserve" font-size="7.80679" transform="translate(743.843, 557.432)" >V1</text>
<text fill="#222222"  xml:space="preserve" font-size="7.80679" transform="translate(743.843, 576.199)" >0</text>
<text fill="#222222"  xml:space="preserve" font-size="7.80679" transform="translate(796.389, 557.432)" >V2</text>
<text fill="#222222"  xml:space="preserve" font-size="7.80679" transform="translate(796.389, 576.199)" >3</text>
<text fill="#222222"  xml:space="preserve" font-size="11.7102" transform="translate(124.554, 537.519)" >MODELS</text>
<text fill="#222222"  xml:space="preserve" font-size="11.7102" style="font-family:Monospace;" transform="translate(132.061, 569.717)" >.include $::180MCU_MODELS/design.spice</text>
<text fill="#222222"  xml:space="preserve" font-size="11.7102" style="font-family:Monospace;" transform="translate(132.061, 583.148)" >.lib $::180MCU_MODELS/sm141064.spice typical</text>
<text fill="#222222"  xml:space="preserve" font-size="11.7102" transform="translate(492.374, 507.492)" >NGSPICE</text>
<text fill="#222222"  xml:space="preserve" font-size="11.7102" style="font-family:Monospace;" transform="translate(499.881, 539.69)" >.ic v(OUT)=0</text>
<text fill="#222222"  xml:space="preserve" font-size="11.7102" style="font-family:Monospace;" transform="translate(499.881, 553.122)" >.control</text>
<text fill="#222222"  xml:space="preserve" font-size="11.7102" style="font-family:Monospace;" transform="translate(499.881, 566.554)" >save all</text>
<text fill="#222222"  xml:space="preserve" font-size="11.7102" style="font-family:Monospace;" transform="translate(499.881, 579.985)" >tran 10p 100n</text>
<text fill="#222222"  xml:space="preserve" font-size="11.7102" style="font-family:Monospace;" transform="translate(499.881, 593.417)" >plot v(OUT)</text>
<text fill="#222222"  xml:space="preserve" font-size="11.7102" style="font-family:Monospace;" transform="translate(499.881, 606.848)" >write inv_tb.raw</text>
<text fill="#222222"  xml:space="preserve" font-size="11.7102" style="font-family:Monospace;" transform="translate(499.881, 620.28)" >.endc</text>
<text fill="#222222"  xml:space="preserve" font-size="3.9034" transform="translate(128.308, 768.762)" >VDD</text>
<text fill="#222222"  xml:space="preserve" font-size="3.9034" transform="translate(130.184, 815.678)" >VSS</text>
<text fill="#222222"  xml:space="preserve" font-size="3.9034" transform="translate(107.665, 791.282)" >IN</text>
<text fill="#222222"  xml:space="preserve" font-size="3.9034" transform="translate(171.47, 791.282)" >OUT</text>
<text fill="#222222"  xml:space="preserve" font-size="15.6136" transform="translate(143.321, 833.818)" >xTest_INV1</text>
<text fill="#222222"  xml:space="preserve" font-size="3.9034" transform="translate(353.504, 768.762)" >VDD</text>
<text fill="#222222"  xml:space="preserve" font-size="3.9034" transform="translate(355.38, 815.678)" >VSS</text>
<text fill="#222222"  xml:space="preserve" font-size="3.9034" transform="translate(332.861, 791.282)" >IN</text>
<text fill="#222222"  xml:space="preserve" font-size="3.9034" transform="translate(396.666, 791.282)" >OUT</text>
<text fill="#222222"  xml:space="preserve" font-size="15.6136" transform="translate(368.517, 833.818)" >xTest_INV2</text>
<text fill="#222222"  xml:space="preserve" font-size="3.9034" transform="translate(601.219, 768.762)" >VDD</text>
<text fill="#222222"  xml:space="preserve" font-size="3.9034" transform="translate(603.096, 815.678)" >VSS</text>
<text fill="#222222"  xml:space="preserve" font-size="3.9034" transform="translate(580.576, 791.282)" >IN</text>
<text fill="#222222"  xml:space="preserve" font-size="3.9034" transform="translate(644.382, 791.282)" >OUT</text>
<text fill="#222222"  xml:space="preserve" font-size="15.6136" transform="translate(616.232, 833.818)" >xTest_INV3</text>
<text fill="#222222"  xml:space="preserve" font-size="3.9034" transform="translate(863.948, 768.762)" >VDD</text>
<text fill="#222222"  xml:space="preserve" font-size="3.9034" transform="translate(865.824, 815.678)" >VSS</text>
<text fill="#222222"  xml:space="preserve" font-size="3.9034" transform="translate(843.305, 791.282)" >IN</text>
<text fill="#222222"  xml:space="preserve" font-size="3.9034" transform="translate(907.11, 791.282)" >OUT</text>
<text fill="#222222"  xml:space="preserve" font-size="15.6136" transform="translate(878.961, 833.818)" >xTest_INV4</text>
<text fill="#222222"  xml:space="preserve" font-size="3.9034" transform="translate(1111.66, 768.762)" >VDD</text>
<text fill="#222222"  xml:space="preserve" font-size="3.9034" transform="translate(1113.54, 815.678)" >VSS</text>
<text fill="#222222"  xml:space="preserve" font-size="3.9034" transform="translate(1091.02, 791.282)" >IN</text>
<text fill="#222222"  xml:space="preserve" font-size="3.9034" transform="translate(1154.83, 791.282)" >OUT</text>
<text fill="#222222"  xml:space="preserve" font-size="15.6136" transform="translate(1126.68, 833.818)" >xTest_INV5</text>
<text fill="#222222"  xml:space="preserve" font-size="3.9034" transform="translate(1374.39, 768.762)" >VDD</text>
<text fill="#222222"  xml:space="preserve" font-size="3.9034" transform="translate(1376.27, 815.678)" >VSS</text>
<text fill="#222222"  xml:space="preserve" font-size="3.9034" transform="translate(1353.75, 791.282)" >IN</text>
<text fill="#222222"  xml:space="preserve" font-size="3.9034" transform="translate(1417.55, 791.282)" >OUT</text>
<text fill="#222222"  xml:space="preserve" font-size="15.6136" transform="translate(1389.41, 833.818)" >xTest_INV6</text>
<text fill="#222222"  xml:space="preserve" font-size="3.9034" transform="translate(1622.11, 768.762)" >VDD</text>
<text fill="#222222"  xml:space="preserve" font-size="3.9034" transform="translate(1623.98, 815.678)" >VSS</text>
<text fill="#222222"  xml:space="preserve" font-size="3.9034" transform="translate(1601.46, 791.282)" >IN</text>
<text fill="#222222"  xml:space="preserve" font-size="3.9034" transform="translate(1665.27, 791.282)" >OUT</text>
<text fill="#222222"  xml:space="preserve" font-size="15.6136" transform="translate(1637.12, 833.818)" >xTest_INV7</text>
<path class="l4" d="M730.707 547.529L734.46 547.529"/>
<path class="l4" d="M732.583 545.652L732.583 549.405"/>
<path class="l4" d="M728.83 541.899L728.83 586.938"/>
<circle class="l4" cx="728.83" cy="564.418" r="11.2598" style="fill:none;"/>
<path class="l4" d="M783.253 547.529L787.006 547.529"/>
<path class="l4" d="M785.129 545.652L785.129 549.405"/>
<path class="l4" d="M781.376 541.899L781.376 586.938"/>
<circle class="l4" cx="781.376" cy="564.418" r="11.2598" style="fill:none;"/>
<path class="l4" d="M728.83 609.458L728.83 618.841"/>
<path class="l4" d="M725.077 618.841L732.583 618.841"/>
<path class="l4" d="M728.83 622.594L732.583 618.841"/>
<path class="l4" d="M725.077 618.841L728.83 622.594"/>
<path class="l4" d="M120.801 541.899L173.347 541.899"/>
<path class="l4" d="M120.801 541.899L120.801 556.912"/>
<path class="l4" d="M488.621 511.873L541.167 511.873"/>
<path class="l4" d="M488.621 511.873L488.621 526.886"/>
<path class="l4" d="M105.788 744.575L105.788 789.614"/>
<path class="l4" d="M105.788 789.614L105.788 834.654"/>
<path class="l4" d="M60.7487 789.614L105.788 789.614"/>
<path class="l4" d="M105.788 834.888L185.31 789.849"/>
<path class="l4" d="M105.553 744.575L185.076 789.614"/>
<path class="l4" d="M218.386 789.614L248.412 789.614"/>
<path class="l4" d="M216.04 789.614L218.386 789.614"/>
<path class="l4" d="M135.814 729.562L135.814 759.588"/>
<path class="l4" d="M135.814 819.641L135.814 849.667"/>
<circle class="l4" cx="200.558" cy="789.614" r="15.1299" style="fill:none;"/>
<path class="l4" d="M330.984 744.575L330.984 789.614"/>
<path class="l4" d="M330.984 789.614L330.984 834.654"/>
<path class="l4" d="M285.945 789.614L330.984 789.614"/>
<path class="l4" d="M330.984 834.888L410.506 789.849"/>
<path class="l4" d="M330.749 744.575L410.272 789.614"/>
<path class="l4" d="M443.582 789.614L473.608 789.614"/>
<path class="l4" d="M441.236 789.614L443.582 789.614"/>
<path class="l4" d="M361.01 729.562L361.01 759.588"/>
<path class="l4" d="M361.01 819.641L361.01 849.667"/>
<circle class="l4" cx="425.754" cy="789.614" r="15.1299" style="fill:none;"/>
<path class="l4" d="M578.699 744.575L578.699 789.614"/>
<path class="l4" d="M578.699 789.614L578.699 834.654"/>
<path class="l4" d="M533.66 789.614L578.699 789.614"/>
<path class="l4" d="M578.699 834.888L658.222 789.849"/>
<path class="l4" d="M578.465 744.575L657.987 789.614"/>
<path class="l4" d="M691.297 789.614L721.324 789.614"/>
<path class="l4" d="M688.952 789.614L691.297 789.614"/>
<path class="l4" d="M608.726 729.562L608.726 759.588"/>
<path class="l4" d="M608.726 819.641L608.726 849.667"/>
<circle class="l4" cx="673.469" cy="789.614" r="15.1299" style="fill:none;"/>
<path class="l4" d="M841.428 744.575L841.428 789.614"/>
<path class="l4" d="M841.428 789.614L841.428 834.654"/>
<path class="l4" d="M796.389 789.614L841.428 789.614"/>
<path class="l4" d="M841.428 834.888L920.95 789.849"/>
<path class="l4" d="M841.194 744.575L920.716 789.614"/>
<path class="l4" d="M954.026 789.614L984.052 789.614"/>
<path class="l4" d="M951.68 789.614L954.026 789.614"/>
<path class="l4" d="M871.454 729.562L871.454 759.588"/>
<path class="l4" d="M871.454 819.641L871.454 849.667"/>
<circle class="l4" cx="936.198" cy="789.614" r="15.1299" style="fill:none;"/>
<path class="l4" d="M1089.14 744.575L1089.14 789.614"/>
<path class="l4" d="M1089.14 789.614L1089.14 834.654"/>
<path class="l4" d="M1044.1 789.614L1089.14 789.614"/>
<path class="l4" d="M1089.14 834.888L1168.67 789.849"/>
<path class="l4" d="M1088.91 744.575L1168.43 789.614"/>
<path class="l4" d="M1201.74 789.614L1231.77 789.614"/>
<path class="l4" d="M1199.4 789.614L1201.74 789.614"/>
<path class="l4" d="M1119.17 729.562L1119.17 759.588"/>
<path class="l4" d="M1119.17 819.641L1119.17 849.667"/>
<circle class="l4" cx="1183.91" cy="789.614" r="15.1299" style="fill:none;"/>
<path class="l4" d="M1351.87 744.575L1351.87 789.614"/>
<path class="l4" d="M1351.87 789.614L1351.87 834.654"/>
<path class="l4" d="M1306.83 789.614L1351.87 789.614"/>
<path class="l4" d="M1351.87 834.888L1431.39 789.849"/>
<path class="l4" d="M1351.64 744.575L1431.16 789.614"/>
<path class="l4" d="M1464.47 789.614L1494.5 789.614"/>
<path class="l4" d="M1462.12 789.614L1464.47 789.614"/>
<path class="l4" d="M1381.9 729.562L1381.9 759.588"/>
<path class="l4" d="M1381.9 819.641L1381.9 849.667"/>
<circle class="l4" cx="1446.64" cy="789.614" r="15.1299" style="fill:none;"/>
<path class="l4" d="M1599.59 744.575L1599.59 789.614"/>
<path class="l4" d="M1599.59 789.614L1599.59 834.654"/>
<path class="l4" d="M1554.55 789.614L1599.59 789.614"/>
<path class="l4" d="M1599.59 834.888L1679.11 789.849"/>
<path class="l4" d="M1599.35 744.575L1678.88 789.614"/>
<path class="l4" d="M1712.19 789.614L1742.21 789.614"/>
<path class="l4" d="M1709.84 789.614L1712.19 789.614"/>
<path class="l4" d="M1629.61 729.562L1629.61 759.588"/>
<path class="l4" d="M1629.61 819.641L1629.61 849.667"/>
<circle class="l4" cx="1694.36" cy="789.614" r="15.1299" style="fill:none;"/>
<path class="l5" d="M726.954 540.022L730.707 540.022L730.707 543.775L726.954 543.775L726.954 540.022z"/>
<path class="l5" d="M726.954 585.061L730.707 585.061L730.707 588.815L726.954 588.815L726.954 585.061z"/>
<path class="l5" d="M779.499 540.022L783.253 540.022L783.253 543.775L779.499 543.775L779.499 540.022z"/>
<path class="l5" d="M779.499 585.061L783.253 585.061L783.253 588.815L779.499 588.815L779.499 585.061z"/>
<path class="l5" d="M727.892 525.947L729.768 525.947L729.768 527.824L727.892 527.824L727.892 525.947z"/>
<path class="l5" d="M780.438 601.013L782.314 601.013L782.314 602.889L780.438 602.889L780.438 601.013z"/>
<path class="l5" d="M726.954 607.581L730.707 607.581L730.707 611.334L726.954 611.334L726.954 607.581z"/>
<path class="l5" d="M780.438 533.454L782.314 533.454L782.314 535.331L780.438 535.331L780.438 533.454z"/>
<path class="l5" d="M133.937 727.686L137.691 727.686L137.691 731.439L133.937 731.439L133.937 727.686z"/>
<path class="l5" d="M133.937 847.79L137.691 847.79L137.691 851.543L133.937 851.543L133.937 847.79z"/>
<path class="l5" d="M58.8721 787.738L62.6254 787.738L62.6254 791.491L58.8721 791.491L58.8721 787.738z"/>
<path class="l5" d="M246.535 787.738L250.289 787.738L250.289 791.491L246.535 791.491L246.535 787.738z"/>
<path class="l5" d="M359.133 727.686L362.887 727.686L362.887 731.439L359.133 731.439L359.133 727.686z"/>
<path class="l5" d="M359.133 847.79L362.887 847.79L362.887 851.543L359.133 851.543L359.133 847.79z"/>
<path class="l5" d="M284.068 787.738L287.821 787.738L287.821 791.491L284.068 791.491L284.068 787.738z"/>
<path class="l5" d="M471.731 787.738L475.485 787.738L475.485 791.491L471.731 791.491L471.731 787.738z"/>
<path class="l5" d="M606.849 727.686L610.602 727.686L610.602 731.439L606.849 731.439L606.849 727.686z"/>
<path class="l5" d="M606.849 847.79L610.602 847.79L610.602 851.543L606.849 851.543L606.849 847.79z"/>
<path class="l5" d="M531.784 787.738L535.537 787.738L535.537 791.491L531.784 791.491L531.784 787.738z"/>
<path class="l5" d="M719.447 787.738L723.2 787.738L723.2 791.491L719.447 791.491L719.447 787.738z"/>
<path class="l5" d="M285.006 848.728L286.883 848.728L286.883 850.605L285.006 850.605L285.006 848.728z"/>
<path class="l5" d="M239.967 728.624L241.844 728.624L241.844 730.5L239.967 730.5L239.967 728.624z"/>
<path class="l5" d="M869.578 727.686L873.331 727.686L873.331 731.439L869.578 731.439L869.578 727.686z"/>
<path class="l5" d="M869.578 847.79L873.331 847.79L873.331 851.543L869.578 851.543L869.578 847.79z"/>
<path class="l5" d="M794.512 787.738L798.266 787.738L798.266 791.491L794.512 791.491L794.512 787.738z"/>
<path class="l5" d="M982.176 787.738L985.929 787.738L985.929 791.491L982.176 791.491L982.176 787.738z"/>
<path class="l5" d="M1117.29 727.686L1121.05 727.686L1121.05 731.439L1117.29 731.439L1117.29 727.686z"/>
<path class="l5" d="M1117.29 847.79L1121.05 847.79L1121.05 851.543L1117.29 851.543L1117.29 847.79z"/>
<path class="l5" d="M1042.23 787.738L1045.98 787.738L1045.98 791.491L1042.23 791.491L1042.23 787.738z"/>
<path class="l5" d="M1229.89 787.738L1233.64 787.738L1233.64 791.491L1229.89 791.491L1229.89 787.738z"/>
<path class="l5" d="M1793.82 788.676L1795.7 788.676L1795.7 790.553L1793.82 790.553L1793.82 788.676z"/>
<path class="l5" d="M1380.02 727.686L1383.78 727.686L1383.78 731.439L1380.02 731.439L1380.02 727.686z"/>
<path class="l5" d="M1380.02 847.79L1383.78 847.79L1383.78 851.543L1380.02 851.543L1380.02 847.79z"/>
<path class="l5" d="M1304.96 787.738L1308.71 787.738L1308.71 791.491L1304.96 791.491L1304.96 787.738z"/>
<path class="l5" d="M1492.62 787.738L1496.37 787.738L1496.37 791.491L1492.62 791.491L1492.62 787.738z"/>
<path class="l5" d="M1627.74 727.686L1631.49 727.686L1631.49 731.439L1627.74 731.439L1627.74 727.686z"/>
<path class="l5" d="M1627.74 847.79L1631.49 847.79L1631.49 851.543L1627.74 851.543L1627.74 847.79z"/>
<path class="l5" d="M1552.67 787.738L1556.43 787.738L1556.43 791.491L1552.67 791.491L1552.67 787.738z"/>
<path class="l5" d="M1740.34 787.738L1744.09 787.738L1744.09 791.491L1740.34 791.491L1740.34 787.738z"/>
<path class="l1" d="M728.83 586.938L728.83 609.458"/>
<path class="l1" d="M728.83 526.886L728.83 541.899"/>
<path class="l1" d="M781.376 586.938L781.376 609.458"/>
<path class="l1" d="M781.376 526.886L781.376 541.899"/>
<path class="l1" d="M135.814 729.562L608.726 729.562"/>
<path class="l1" d="M135.814 849.667L608.726 849.667"/>
<path class="l1" d="M248.412 789.614L285.945 789.614"/>
<path class="l1" d="M473.608 789.614L533.66 789.614"/>
<path class="l1" d="M721.324 789.614L796.389 789.614"/>
<path class="l1" d="M30.7226 902.212L796.389 902.212"/>
<path class="l1" d="M30.7226 789.614L30.7226 902.212"/>
<path class="l1" d="M30.7226 789.614L60.7487 789.614"/>
<path class="l1" d="M984.052 789.614L1044.1 789.614"/>
<path class="l1" d="M1231.77 789.614L1306.83 789.614"/>
<path class="l1" d="M1494.5 789.614L1554.55 789.614"/>
<path class="l1" d="M1742.21 789.614L1817.28 789.614"/>
<path class="l1" d="M1817.28 789.614L1817.28 894.706"/>
<path class="l1" d="M796.389 902.212L1817.28 902.212"/>
<path class="l1" d="M1817.28 894.706L1817.28 902.212"/>
<path class="l1" d="M608.726 729.562L1629.61 729.562"/>
<path class="l1" d="M608.726 849.667L1629.61 849.667"/>
</svg>
